<svg xmlns="http://www.w3.org/2000/svg" viewBox="0 0 334.755 101.489"><defs><style>.cls-1{fill:#008d36;}.cls-2{fill:#1d1d1b;}.cls-3{fill:#3c3c3b;}.cls-4{fill:#f39200;}.cls-5{fill:#575756;}.cls-6{fill:#fff;}.cls-7{fill:#f6f6f6;}.cls-8{fill:#e12927;}.cls-9{fill:#fffcfc;}.cls-10{fill:#fff9f9;}.cls-11{fill:#fffbfb;}.cls-12{fill:#fef9f9;}.cls-13{fill:snow;}.cls-14{fill:#fef8f8;}.cls-15{fill:#fffbfa;}.cls-16{fill:#e22927;}.cls-17{fill:#e22928;}.cls-18{fill:#e22a28;}.cls-19{fill:#e22b29;}.cls-20{fill:#e22c2a;}.cls-21{fill:#e22d2a;}</style></defs><g id="Layer_2" data-name="Layer 2"><g id="Layer_1-2" data-name="Layer 1"><path class="cls-1" d="M1.846,1.646H71a.1.1,0,0,1,.1.1V70.7a.1.1,0,0,1-.1.1H1.746a.1.1,0,0,1-.1-.1V1.846A.2.2,0,0,1,1.846,1.646Z"/><path class="cls-2" d="M126.275,70.917a4.6,4.6,0,0,1-1.978,3.839,8.18,8.18,0,0,1-5.055,1.488h-27.5a8.04,8.04,0,0,1-5.024-1.488,4.618,4.618,0,0,1-1.946-3.839V6.473a4.621,4.621,0,0,1,1.946-3.839,8.047,8.047,0,0,1,5.024-1.488h27.5A8.187,8.187,0,0,1,124.3,2.634a4.6,4.6,0,0,1,1.978,3.839Zm-8.728-.576V7.049H93.5V70.341Z"/><path class="cls-2" d="M180.278,70.917a4.644,4.644,0,0,1-1.915,3.839,7.907,7.907,0,0,1-4.992,1.488H148.63a8.178,8.178,0,0,1-5.055-1.488,4.6,4.6,0,0,1-1.978-3.839V51.867h8.728V70.341H171.55v-17.9L144.422,27.394a7.656,7.656,0,0,1-2.825-5.71V6.473a4.6,4.6,0,0,1,1.978-3.839,8.185,8.185,0,0,1,5.055-1.488h24.741a7.913,7.913,0,0,1,4.992,1.488,4.646,4.646,0,0,1,1.915,3.839V23.939H171.55V7.049H150.325V22.884l27.253,25.048a7.5,7.5,0,0,1,2.7,5.614Z"/><path class="cls-2" d="M234.031,70.917a4.644,4.644,0,0,1-1.915,3.839,7.907,7.907,0,0,1-4.992,1.488H202.383a8.183,8.183,0,0,1-5.056-1.488,4.6,4.6,0,0,1-1.977-3.839V51.867h8.728V70.341H225.3v-17.9L198.176,27.394a7.651,7.651,0,0,1-2.826-5.71V6.473a4.6,4.6,0,0,1,1.977-3.839,8.19,8.19,0,0,1,5.056-1.488h24.741a7.913,7.913,0,0,1,4.992,1.488,4.646,4.646,0,0,1,1.915,3.839V23.939H225.3V7.049H204.078V22.884l27.253,25.048a7.5,7.5,0,0,1,2.7,5.614Z"/><path class="cls-2" d="M289.1,76.244h-8.665l-3.454-16.7h-19.53L254,76.244h-8.415v-.192l17.52-75.1h8.6Zm-13.249-22.6-8.6-40.691-8.665,40.691Z"/><path class="cls-2" d="M334.755,7.049h-15.2V76.244H310.83V7.049H295.508v-5.9h39.247Z"/><rect class="cls-3" x="11.348" y="11.179" width="50.22" height="50.22"/><rect class="cls-4" x="6.723" width="0.997" height="3.292"/><rect class="cls-4" x="9.495" width="0.997" height="3.292"/><rect class="cls-4" x="12.237" width="0.997" height="3.292"/><rect class="cls-4" x="15.259" width="0.997" height="3.292"/><rect class="cls-4" x="18" width="0.997" height="3.292"/><rect class="cls-4" x="20.773" width="0.997" height="3.292"/><rect class="cls-4" x="23.515" width="0.997" height="3.292"/><rect class="cls-4" x="26.365" width="0.997" height="3.292"/><rect class="cls-4" x="29.107" width="0.997" height="3.292"/><rect class="cls-4" x="31.879" width="0.997" height="3.292"/><rect class="cls-4" x="34.621" width="0.997" height="3.292"/><rect class="cls-4" x="37.394" width="0.997" height="3.292"/><rect class="cls-4" x="40.135" width="0.997" height="3.292"/><rect class="cls-4" x="42.908" width="0.997" height="3.292"/><rect class="cls-4" x="45.649" width="0.997" height="3.292"/><rect class="cls-4" x="48.235" width="0.997" height="3.292"/><rect class="cls-4" x="50.977" width="0.997" height="3.292"/><rect class="cls-4" x="53.749" width="0.997" height="3.292"/><rect class="cls-4" x="56.491" width="0.997" height="3.292"/><rect class="cls-4" x="59.513" width="0.997" height="3.292"/><rect class="cls-4" x="62.254" width="0.997" height="3.292"/><rect class="cls-4" x="65.027" width="0.997" height="3.292"/><rect class="cls-4" x="70.602" y="63.795" width="0.997" height="3.292" transform="translate(5.659 136.542) rotate(-90)"/><rect class="cls-4" x="70.602" y="61.023" width="0.997" height="3.292" transform="translate(8.432 133.769) rotate(-90)"/><rect class="cls-4" x="70.602" y="58.281" width="0.997" height="3.292" transform="translate(11.174 131.028) rotate(-90)"/><rect class="cls-4" x="70.602" y="55.259" width="0.997" height="3.292" transform="translate(14.196 128.006) rotate(-90)"/><rect class="cls-4" x="70.602" y="52.518" width="0.997" height="3.292" transform="translate(16.937 125.264) rotate(-90)"/><rect class="cls-4" x="70.602" y="49.745" width="0.997" height="3.292" transform="translate(19.71 122.491) rotate(-90)"/><rect class="cls-4" x="70.602" y="47.003" width="0.997" height="3.292" transform="translate(22.451 119.75) rotate(-90)"/><rect class="cls-4" x="70.602" y="44.153" width="0.997" height="3.292" transform="translate(25.302 116.899) rotate(-90)"/><rect class="cls-4" x="70.602" y="41.411" width="0.997" height="3.292" transform="translate(28.043 114.158) rotate(-90)"/><rect class="cls-4" x="70.602" y="38.639" width="0.997" height="3.292" transform="translate(30.816 111.385) rotate(-90)"/><rect class="cls-4" x="70.602" y="35.897" width="0.997" height="3.292" transform="translate(33.558 108.643) rotate(-90)"/><rect class="cls-4" x="70.602" y="33.124" width="0.997" height="3.292" transform="translate(36.33 105.871) rotate(-90)"/><rect class="cls-4" x="70.602" y="30.383" width="0.997" height="3.292" transform="translate(39.072 103.129) rotate(-90)"/><rect class="cls-4" x="70.602" y="27.61" width="0.997" height="3.292" transform="translate(41.845 100.357) rotate(-90)"/><rect class="cls-4" x="70.602" y="24.869" width="0.997" height="3.292" transform="translate(44.586 97.615) rotate(-90)"/><rect class="cls-4" x="70.602" y="22.283" width="0.997" height="3.292" transform="translate(47.172 95.029) rotate(-90)"/><rect class="cls-4" x="70.602" y="19.541" width="0.997" height="3.292" transform="translate(49.913 92.288) rotate(-90)"/><rect class="cls-4" x="70.602" y="16.769" width="0.997" height="3.292" transform="translate(52.686 89.515) rotate(-90)"/><rect class="cls-4" x="70.602" y="14.027" width="0.997" height="3.292" transform="translate(55.428 86.774) rotate(-90)"/><rect class="cls-4" x="70.602" y="11.005" width="0.997" height="3.292" transform="translate(58.45 83.752) rotate(-90)"/><rect class="cls-4" x="70.602" y="8.264" width="0.997" height="3.292" transform="translate(61.191 81.01) rotate(-90)"/><rect class="cls-4" x="70.602" y="5.491" width="0.997" height="3.292" transform="translate(63.964 78.237) rotate(-90)"/><rect class="cls-4" x="6.682" y="69.208" width="0.997" height="3.292"/><rect class="cls-4" x="9.455" y="69.208" width="0.997" height="3.292"/><rect class="cls-4" x="12.197" y="69.208" width="0.997" height="3.292"/><rect class="cls-4" x="15.218" y="69.208" width="0.997" height="3.292"/><rect class="cls-4" x="17.96" y="69.208" width="0.997" height="3.292"/><rect class="cls-4" x="20.733" y="69.208" width="0.997" height="3.292"/><rect class="cls-4" x="23.474" y="69.208" width="0.997" height="3.292"/><rect class="cls-4" x="26.325" y="69.208" width="0.997" height="3.292"/><rect class="cls-4" x="29.066" y="69.208" width="0.997" height="3.292"/><rect class="cls-4" x="31.839" y="69.208" width="0.997" height="3.292"/><rect class="cls-4" x="34.581" y="69.208" width="0.997" height="3.292"/><rect class="cls-4" x="37.353" y="69.208" width="0.997" height="3.292"/><rect class="cls-4" x="40.095" y="69.208" width="0.997" height="3.292"/><rect class="cls-4" x="42.867" y="69.208" width="0.997" height="3.292"/><rect class="cls-4" x="45.609" y="69.208" width="0.997" height="3.292"/><rect class="cls-4" x="48.195" y="69.208" width="0.997" height="3.292"/><rect class="cls-4" x="50.936" y="69.208" width="0.997" height="3.292"/><rect class="cls-4" x="53.709" y="69.208" width="0.997" height="3.292"/><rect class="cls-4" x="56.451" y="69.208" width="0.997" height="3.292"/><rect class="cls-4" x="59.472" y="69.208" width="0.997" height="3.292"/><rect class="cls-4" x="62.214" y="69.208" width="0.997" height="3.292"/><rect class="cls-4" x="64.987" y="69.208" width="0.997" height="3.292"/><rect class="cls-4" x="1.147" y="63.795" width="0.997" height="3.292" transform="translate(-63.795 67.087) rotate(-90)"/><rect class="cls-4" x="1.147" y="61.023" width="0.997" height="3.292" transform="translate(-61.023 64.314) rotate(-90)"/><rect class="cls-4" x="1.147" y="58.281" width="0.997" height="3.292" transform="translate(-58.281 61.573) rotate(-90)"/><rect class="cls-4" x="1.147" y="55.259" width="0.997" height="3.292" transform="translate(-55.259 58.551) rotate(-90)"/><rect class="cls-4" x="1.147" y="52.518" width="0.997" height="3.292" transform="translate(-52.518 55.809) rotate(-90)"/><rect class="cls-4" x="1.147" y="49.745" width="0.997" height="3.292" transform="translate(-49.745 53.037) rotate(-90)"/><rect class="cls-4" x="1.147" y="47.003" width="0.997" height="3.292" transform="translate(-47.003 50.295) rotate(-90)"/><rect class="cls-4" x="1.147" y="44.153" width="0.997" height="3.292" transform="translate(-44.153 47.445) rotate(-90)"/><rect class="cls-4" x="1.147" y="41.411" width="0.997" height="3.292" transform="translate(-41.411 44.703) rotate(-90)"/><rect class="cls-4" x="1.147" y="38.639" width="0.997" height="3.292" transform="translate(-38.639 41.93) rotate(-90)"/><rect class="cls-4" x="1.147" y="35.897" width="0.997" height="3.292" transform="translate(-35.897 39.189) rotate(-90)"/><rect class="cls-4" x="1.147" y="33.124" width="0.997" height="3.292" transform="translate(-33.124 36.416) rotate(-90)"/><rect class="cls-4" x="1.147" y="30.383" width="0.997" height="3.292" transform="translate(-30.383 33.675) rotate(-90)"/><rect class="cls-4" x="1.147" y="27.61" width="0.997" height="3.292" transform="translate(-27.61 30.902) rotate(-90)"/><rect class="cls-4" x="1.147" y="24.869" width="0.997" height="3.292" transform="translate(-24.869 28.16) rotate(-90)"/><rect class="cls-4" x="1.147" y="22.283" width="0.997" height="3.292" transform="translate(-22.283 25.575) rotate(-90)"/><rect class="cls-4" x="1.147" y="19.541" width="0.997" height="3.292" transform="translate(-19.541 22.833) rotate(-90)"/><rect class="cls-4" x="1.147" y="16.769" width="0.997" height="3.292" transform="translate(-16.769 20.06) rotate(-90)"/><rect class="cls-4" x="1.147" y="14.027" width="0.997" height="3.292" transform="translate(-14.027 17.319) rotate(-90)"/><rect class="cls-4" x="1.147" y="11.005" width="0.997" height="3.292" transform="translate(-11.005 14.297) rotate(-90)"/><rect class="cls-4" x="1.147" y="8.264" width="0.997" height="3.292" transform="translate(-8.264 11.555) rotate(-90)"/><rect class="cls-4" x="1.147" y="5.491" width="0.997" height="3.292" transform="translate(-5.491 8.783) rotate(-90)"/><circle class="cls-5" cx="13.726" cy="13.682" r="1.031"/><polyline class="cls-4" points="70.176 67.466 70.176 69.943 67.7 69.943"/><circle class="cls-5" cx="59.439" cy="58.896" r="1.031"/><circle class="cls-4" cx="4.172" cy="3.983" r="0.88"/><path class="cls-1" d="M1.746,80.434H71a.1.1,0,0,1,.1.1v19.781a0,0,0,0,1,0,0H1.646a0,0,0,0,1,0,0V80.534A.1.1,0,0,1,1.746,80.434Z"/><rect class="cls-3" x="5.765" y="85.846" width="6.333" height="6.333"/><rect class="cls-6" x="22.028" y="98.534" width="0.545" height="2.954" rx="0.05"/><rect class="cls-4" x="1.646" y="98.197" width="0.382" height="2.117"/><rect class="cls-4" x="2.273" y="98.197" width="0.382" height="2.117"/><rect class="cls-4" x="2.892" y="98.197" width="0.382" height="2.117"/><rect class="cls-4" x="3.519" y="98.197" width="0.382" height="2.117"/><rect class="cls-4" x="4.138" y="98.197" width="0.382" height="2.117"/><rect class="cls-4" x="4.765" y="98.197" width="0.382" height="2.117"/><rect class="cls-4" x="5.384" y="98.197" width="0.382" height="2.117"/><rect class="cls-4" x="6.011" y="98.197" width="0.382" height="2.117"/><rect class="cls-4" x="6.682" y="98.197" width="0.382" height="2.117"/><rect class="cls-4" x="7.309" y="98.197" width="0.382" height="2.117"/><rect class="cls-4" x="7.928" y="98.197" width="0.382" height="2.117"/><rect class="cls-4" x="8.555" y="98.197" width="0.382" height="2.117"/><rect class="cls-4" x="9.175" y="98.197" width="0.382" height="2.117"/><rect class="cls-4" x="9.802" y="98.197" width="0.382" height="2.117"/><rect class="cls-4" x="10.421" y="98.197" width="0.382" height="2.117"/><rect class="cls-4" x="11.048" y="98.197" width="0.382" height="2.117"/><rect class="cls-4" x="11.709" y="98.197" width="0.382" height="2.117"/><rect class="cls-4" x="12.336" y="98.197" width="0.382" height="2.117"/><rect class="cls-4" x="12.955" y="98.197" width="0.382" height="2.117"/><rect class="cls-4" x="13.582" y="98.197" width="0.382" height="2.117"/><rect class="cls-4" x="14.201" y="98.197" width="0.382" height="2.117"/><rect class="cls-4" x="14.828" y="98.197" width="0.382" height="2.117"/><rect class="cls-4" x="15.447" y="98.197" width="0.382" height="2.117"/><rect class="cls-4" x="16.074" y="98.197" width="0.382" height="2.117"/><rect class="cls-4" x="16.719" y="98.197" width="0.382" height="2.117"/><rect class="cls-4" x="17.346" y="98.197" width="0.382" height="2.117"/><rect class="cls-4" x="17.965" y="98.197" width="0.382" height="2.117"/><rect class="cls-4" x="18.592" y="98.197" width="0.382" height="2.117"/><rect class="cls-4" x="19.211" y="98.197" width="0.382" height="2.117"/><rect class="cls-4" x="19.838" y="98.197" width="0.382" height="2.117"/><rect class="cls-4" x="20.458" y="98.197" width="0.382" height="2.117"/><rect class="cls-4" x="21.085" y="98.197" width="0.382" height="2.117"/><rect class="cls-4" x="23.078" y="98.197" width="0.382" height="2.117"/><rect class="cls-4" x="23.705" y="98.197" width="0.382" height="2.117"/><rect class="cls-4" x="24.325" y="98.197" width="0.382" height="2.117"/><rect class="cls-4" x="24.951" y="98.197" width="0.382" height="2.117"/><rect class="cls-4" x="25.571" y="98.197" width="0.382" height="2.117"/><rect class="cls-4" x="26.198" y="98.197" width="0.382" height="2.117"/><rect class="cls-4" x="26.817" y="98.197" width="0.382" height="2.117"/><rect class="cls-4" x="27.444" y="98.197" width="0.382" height="2.117"/><rect class="cls-4" x="28.115" y="98.197" width="0.382" height="2.117"/><rect class="cls-4" x="28.742" y="98.197" width="0.382" height="2.117"/><rect class="cls-4" x="29.361" y="98.197" width="0.382" height="2.117"/><rect class="cls-4" x="29.988" y="98.197" width="0.382" height="2.117"/><rect class="cls-4" x="30.607" y="98.197" width="0.382" height="2.117"/><rect class="cls-4" x="31.234" y="98.197" width="0.382" height="2.117"/><rect class="cls-4" x="31.853" y="98.197" width="0.382" height="2.117"/><rect class="cls-4" x="32.48" y="98.197" width="0.382" height="2.117"/><rect class="cls-4" x="33.141" y="98.197" width="0.382" height="2.117"/><rect class="cls-4" x="33.768" y="98.197" width="0.382" height="2.117"/><rect class="cls-4" x="34.387" y="98.197" width="0.382" height="2.117"/><rect class="cls-4" x="35.014" y="98.197" width="0.382" height="2.117"/><rect class="cls-4" x="35.633" y="98.197" width="0.382" height="2.117"/><rect class="cls-4" x="36.26" y="98.197" width="0.382" height="2.117"/><rect class="cls-4" x="36.879" y="98.197" width="0.382" height="2.117"/><rect class="cls-4" x="37.506" y="98.197" width="0.382" height="2.117"/><rect class="cls-4" x="38.152" y="98.197" width="0.382" height="2.117"/><rect class="cls-4" x="38.779" y="98.197" width="0.382" height="2.117"/><rect class="cls-4" x="39.398" y="98.197" width="0.382" height="2.117"/><rect class="cls-4" x="40.025" y="98.197" width="0.382" height="2.117"/><rect class="cls-4" x="40.644" y="98.197" width="0.382" height="2.117"/><rect class="cls-4" x="41.271" y="98.197" width="0.382" height="2.117"/><rect class="cls-4" x="41.89" y="98.197" width="0.382" height="2.117"/><rect class="cls-4" x="42.517" y="98.197" width="0.382" height="2.117"/><rect class="cls-4" x="43.153" y="98.197" width="0.382" height="2.117"/><rect class="cls-4" x="43.78" y="98.197" width="0.382" height="2.117"/><rect class="cls-4" x="44.399" y="98.197" width="0.382" height="2.117"/><rect class="cls-4" x="45.026" y="98.197" width="0.382" height="2.117"/><rect class="cls-4" x="45.646" y="98.197" width="0.382" height="2.117"/><rect class="cls-4" x="46.273" y="98.197" width="0.382" height="2.117"/><rect class="cls-4" x="46.892" y="98.197" width="0.382" height="2.117"/><rect class="cls-4" x="47.519" y="98.197" width="0.382" height="2.117"/><rect class="cls-4" x="48.19" y="98.197" width="0.382" height="2.117"/><rect class="cls-4" x="48.817" y="98.197" width="0.382" height="2.117"/><rect class="cls-4" x="49.436" y="98.197" width="0.382" height="2.117"/><rect class="cls-4" x="50.063" y="98.197" width="0.382" height="2.117"/><rect class="cls-4" x="50.682" y="98.197" width="0.382" height="2.117"/><rect class="cls-4" x="51.309" y="98.197" width="0.382" height="2.117"/><rect class="cls-4" x="51.928" y="98.197" width="0.382" height="2.117"/><rect class="cls-4" x="52.555" y="98.197" width="0.382" height="2.117"/><rect class="cls-4" x="53.216" y="98.197" width="0.382" height="2.117"/><rect class="cls-4" x="53.843" y="98.197" width="0.382" height="2.117"/><rect class="cls-4" x="54.462" y="98.197" width="0.382" height="2.117"/><rect class="cls-4" x="55.089" y="98.197" width="0.382" height="2.117"/><rect class="cls-4" x="55.708" y="98.197" width="0.382" height="2.117"/><rect class="cls-4" x="56.335" y="98.197" width="0.382" height="2.117"/><rect class="cls-4" x="56.954" y="98.197" width="0.382" height="2.117"/><rect class="cls-4" x="57.581" y="98.197" width="0.382" height="2.117"/><rect class="cls-4" x="58.227" y="98.197" width="0.382" height="2.117"/><rect class="cls-4" x="58.853" y="98.197" width="0.382" height="2.117"/><rect class="cls-4" x="59.473" y="98.197" width="0.382" height="2.117"/><rect class="cls-4" x="60.1" y="98.197" width="0.382" height="2.117"/><rect class="cls-4" x="60.719" y="98.197" width="0.382" height="2.117"/><rect class="cls-4" x="61.346" y="98.197" width="0.382" height="2.117"/><rect class="cls-4" x="61.965" y="98.197" width="0.382" height="2.117"/><rect class="cls-4" x="62.592" y="98.197" width="0.382" height="2.117"/><rect class="cls-4" x="63.211" y="98.197" width="0.382" height="2.117"/><rect class="cls-4" x="63.838" y="98.197" width="0.382" height="2.117"/><rect class="cls-4" x="64.457" y="98.197" width="0.382" height="2.117"/><rect class="cls-4" x="65.084" y="98.197" width="0.382" height="2.117"/><rect class="cls-4" x="65.729" y="98.197" width="0.382" height="2.117"/><rect class="cls-4" x="66.356" y="98.197" width="0.382" height="2.117"/><rect class="cls-4" x="66.975" y="98.197" width="0.382" height="2.117"/><rect class="cls-4" x="67.602" y="98.197" width="0.382" height="2.117"/><rect class="cls-4" x="68.221" y="98.197" width="0.382" height="2.117"/><rect class="cls-4" x="68.848" y="98.197" width="0.382" height="2.117"/><rect class="cls-4" x="69.468" y="98.197" width="0.382" height="2.117"/><rect class="cls-4" x="70.095" y="98.197" width="0.382" height="2.117"/><rect class="cls-4" x="70.719" y="98.197" width="0.382" height="2.117"/><rect class="cls-3" x="13.61" y="85.846" width="6.333" height="6.333"/><rect class="cls-3" x="21.31" y="85.846" width="6.333" height="6.333"/><rect class="cls-3" x="29.155" y="85.846" width="6.333" height="6.333"/><rect class="cls-3" x="37.258" y="85.846" width="6.333" height="6.333"/><rect class="cls-3" x="45.103" y="85.846" width="6.333" height="6.333"/><rect class="cls-3" x="52.803" y="85.846" width="6.333" height="6.333"/><rect class="cls-3" x="60.649" y="85.846" width="6.333" height="6.333"/><rect class="cls-7" x="7.01" y="86.867" width="19.379" height="4.29" rx="0.304"/><path class="cls-2" d="M8.348,88.9a.116.116,0,0,1-.026.077.086.086,0,0,1-.067.03H7.888a.083.083,0,0,1-.067-.03A.116.116,0,0,1,7.8,88.9V87.6a.114.114,0,0,1,.026-.077.08.08,0,0,1,.067-.03h.367a.083.083,0,0,1,.067.03.114.114,0,0,1,.026.077Zm-.116-.012V87.61H7.911v1.282Z"/><path class="cls-2" d="M9.067,88.9a.115.115,0,0,1-.025.077.083.083,0,0,1-.066.03h-.33a.085.085,0,0,1-.067-.03.111.111,0,0,1-.027-.077v-.386h.117v.374h.282V88.53l-.361-.508a.193.193,0,0,1-.038-.115V87.6a.11.11,0,0,1,.027-.077.082.082,0,0,1,.067-.03h.33a.08.08,0,0,1,.066.03.113.113,0,0,1,.025.077v.354H8.951V87.61H8.669v.321l.362.507a.184.184,0,0,1,.036.114Z"/><path class="cls-2" d="M9.783,88.9a.115.115,0,0,1-.025.077.083.083,0,0,1-.066.03h-.33a.085.085,0,0,1-.067-.03.111.111,0,0,1-.027-.077v-.386h.116v.374h.283V88.53l-.361-.508a.193.193,0,0,1-.038-.115V87.6a.11.11,0,0,1,.027-.077.082.082,0,0,1,.067-.03h.33a.08.08,0,0,1,.066.03.113.113,0,0,1,.025.077v.354H9.667V87.61H9.384v.321l.363.507a.184.184,0,0,1,.036.114Z"/><path class="cls-2" d="M10.517,89.011H10.4l-.046-.338H10.1l-.046.338H9.937v0l.234-1.52h.114Zm-.177-.458-.114-.823-.116.823Z"/><path class="cls-2" d="M11.125,87.61h-.2v1.4h-.116v-1.4h-.2v-.119h.523Z"/><path class="cls-2" d="M8.249,90.555H8.172l-.03-.215H7.969l-.03.215H7.864v0l.155-.97H8.1Zm-.117-.291-.076-.525-.077.525Z"/><path class="cls-2" d="M8.878,90.426a.136.136,0,0,1-.033.093.106.106,0,0,1-.082.036H8.641v.229H8.567v-.831h.074v.016l.088-.012a.707.707,0,0,1,.088-.008c.041,0,.061.022.061.067ZM8.8,90.413v-.386l-.163,0v.451h.1C8.784,90.483,8.8,90.459,8.8,90.413Z"/><path class="cls-2" d="M9.279,90.151H9.206v-.124l-.136,0v.523H9v-.6H9.07v.016l.074-.013a.583.583,0,0,1,.074-.007c.04,0,.061.022.061.067Z"/><path class="cls-2" d="M9.683,90.486q0,.069-.063.069H9.435c-.042,0-.062-.023-.062-.069v-.463c0-.047.02-.07.062-.07H9.62c.042,0,.063.023.063.07Zm-.074,0v-.458H9.446v.458Z"/><path class="cls-2" d="M9.881,90.714c0,.046-.021.07-.063.07H9.726v-.073h.082v-.758h.073Zm0-.893H9.807v-.105h.075Z"/><path class="cls-2" d="M10.309,90.486q0,.069-.063.069h-.178c-.041,0-.062-.023-.062-.069v-.463c0-.047.021-.07.062-.07h.178c.042,0,.063.023.063.07v.217l-.025.029h-.206v.218h.159v-.111h.072Zm-.072-.283v-.181h-.159V90.2Z"/><path class="cls-2" d="M10.731,90.486c0,.046-.021.069-.062.069h-.176c-.042,0-.062-.023-.062-.069v-.463c0-.047.02-.07.062-.07h.176c.041,0,.062.023.062.07v.12h-.073v-.118h-.153v.458h.153v-.135h.073Z"/><path class="cls-2" d="M11.045,90.555H10.94c-.041,0-.062-.023-.062-.069v-.461h-.065v-.072h.065v-.188h.073v.188h.094v.072h-.094v.458h.094Z"/><path class="cls-2" d="M11.673,90.426a.136.136,0,0,1-.033.093.106.106,0,0,1-.082.036h-.2v-.969h.074v.383l.088-.012a.71.71,0,0,1,.087-.008c.041,0,.062.022.062.067Zm-.074-.013v-.386l-.163,0v.451h.1C11.579,90.483,11.6,90.459,11.6,90.413Z"/><path class="cls-2" d="M12.1,89.953l-.13.6-.054.234h-.073l.055-.234-.134-.6h.076l.093.474.093-.474Z"/><path class="cls-2" d="M12.719,89.663h-.134v.892h-.077v-.892h-.136v-.077h.347Z"/><path class="cls-2" d="M13.112,90.486q0,.069-.063.069h-.186c-.041,0-.062-.023-.062-.069v-.463c0-.047.021-.07.062-.07h.186c.042,0,.063.023.063.07Zm-.074,0v-.458h-.163v.458Z"/><path class="cls-2" d="M13.776,90.555H13.7v-.528l-.161,0v.523h-.074v-.528l-.161,0v.523h-.073v-.6h.073v.016l.087-.013a.831.831,0,0,1,.087-.007.054.054,0,0,1,.05.023l.093-.015a.838.838,0,0,1,.091-.008c.041,0,.062.022.062.067Z"/><path class="cls-2" d="M14.491,90.555h-.077v-.466H14.2v.466h-.077v-.969H14.2v.426h.21v-.426h.077Z"/><path class="cls-2" d="M14.923,90.486c0,.046-.021.069-.062.069h-.178c-.041,0-.062-.023-.062-.069v-.463c0-.047.021-.07.062-.07h.178c.041,0,.062.023.062.07v.217l-.024.029h-.206v.218h.159v-.111h.071Zm-.071-.283v-.181h-.159V90.2Z"/><path class="cls-2" d="M15.328,90.151h-.073v-.124l-.136,0v.523h-.073v-.6h.073v.016l.074-.013a.617.617,0,0,1,.074-.007c.041,0,.061.022.061.067Z"/><path class="cls-2" d="M15.705,90.151h-.073v-.124l-.136,0v.523h-.074v-.6H15.5v.016l.074-.013a.583.583,0,0,1,.074-.007c.04,0,.061.022.061.067Z"/><path class="cls-2" d="M15.877,89.821H15.8v-.105h.075Zm0,.734H15.8v-.6h.073Z"/><path class="cls-2" d="M16.312,90.555h-.074v-.528l-.163,0v.523H16v-.6h.074v.016l.087-.013a.868.868,0,0,1,.088-.007c.041,0,.062.022.062.067Z"/><path class="cls-2" d="M16.738,90.714c0,.046-.021.07-.063.07H16.5c-.043,0-.064-.03-.064-.088v-.062h.072v.08h.155v-.159h-.122a.106.106,0,0,1-.082-.036.136.136,0,0,1-.033-.093v-.352a.136.136,0,0,1,.029-.089.09.09,0,0,1,.076-.036c.009,0,.053.006.132.02v-.016h.073Zm-.073-.231v-.455l-.1-.006c-.041,0-.062.022-.062.069v.322c0,.046.021.07.062.07Z"/><path class="cls-8" d="M21.456,87.486h4.008v3.053H21.456Zm.848.947.009-.012c.108-.107.214-.215.324-.32a.582.582,0,0,1,.219-.141s.008-.01.012-.015a.113.113,0,0,0-.018-.012s-.01,0-.015,0l-.219,0c-.039,0-.078,0-.117,0-.008,0-.017.009-.025.014.007.006.013.015.021.018s.032.005.047.01a.048.048,0,0,1,.029.074.543.543,0,0,1-.056.085c-.083.091-.167.18-.252.269a1.2,1.2,0,0,1-.092.082.126.126,0,0,1-.026.014l0-.015c0-.13,0-.261,0-.391a.124.124,0,0,1,.121-.129.071.071,0,0,0,.021,0s.011-.008.01-.012a.018.018,0,0,0-.01-.014.04.04,0,0,0-.019,0h-.406a.049.049,0,0,0-.021,0,.02.02,0,0,0-.009.015s.006.009.011.011.01,0,.015,0a.124.124,0,0,1,.127.134c0,.048,0,.1,0,.143,0,.186,0,.372,0,.558a1.33,1.33,0,0,1-.006.141.117.117,0,0,1-.117.114.068.068,0,0,0-.015,0s-.012.009-.012.013.008.009.013.012a.037.037,0,0,0,.015,0h.418c.013,0,.035.013.037-.011s-.021-.018-.036-.019a.134.134,0,0,1-.136-.111.212.212,0,0,1-.006-.043c0-.1,0-.208,0-.312,0-.011.006-.029.013-.031a.042.042,0,0,1,.034.009.567.567,0,0,1,.061.059l.384.446a.037.037,0,0,0,.032.015h.285a.047.047,0,0,0,.017,0c.005,0,.012-.007.011-.01a.022.022,0,0,0-.009-.016l-.014,0a.277.277,0,0,1-.193-.092c-.121-.135-.24-.271-.359-.407C22.369,88.512,22.337,88.472,22.3,88.433ZM21.891,90.1h3.122v-.066H21.891Zm1.893-1.748-.016-.017-.345-.385a.036.036,0,0,0-.022-.013c-.039,0-.078,0-.117,0-.006,0-.012.006-.017.009s.009.01.015.012c.034.009.045.021.045.056,0,.094,0,.188,0,.283,0,.044,0,.089-.007.134a.06.06,0,0,1-.048.057s-.007.007-.011.011a.043.043,0,0,0,.013.005h.154s.01-.005.015-.008-.008-.008-.013-.009c-.049-.013-.062-.029-.064-.081,0-.1,0-.207,0-.31,0-.022,0-.044,0-.069l.016.017.385.429a.044.044,0,0,0,.052.016v-.219c0-.086,0-.171,0-.256,0-.035.016-.048.049-.056.007,0,.013-.008.02-.012-.008,0-.015-.009-.022-.009h-.15l-.015,0-.008.008.008.009.014,0a.067.067,0,0,1,.064.076c0,.057,0,.114,0,.171Zm.619-.109c-.038,0-.077,0-.115,0,0,0-.009.006-.014.009s.008.011.013.012a.236.236,0,0,0,.028,0c.042.008.054.023.054.066V88.4a.056.056,0,0,1-.025.05.218.218,0,0,1-.256-.02.259.259,0,0,1-.076-.185.3.3,0,0,1,.062-.214.24.24,0,0,1,.343,0c.017.02.03.044.046.065a.029.029,0,0,0,.015.009s.006-.008.006-.012c0-.038,0-.075,0-.113,0-.005,0-.009-.007-.014s-.01.006-.012.011c-.016.025-.024.028-.048.012a.329.329,0,0,0-.23-.05.309.309,0,0,0-.209.1.291.291,0,0,0-.057.233.236.236,0,0,0,.134.2.37.37,0,0,0,.387-.029.033.033,0,0,0,.016-.032c0-.025,0-.05,0-.074,0-.05.009-.06.057-.07.007,0,.012-.008.017-.012s-.011-.008-.017-.008C24.477,88.24,24.44,88.241,24.4,88.241Zm.61,1.7H21.892v.027h3.121Zm-1.5-.425v.039c0,.046,0,.091,0,.137s-.011.048-.043.055a.045.045,0,0,0-.017.011.068.068,0,0,0,.02.007c.076,0,.153,0,.23,0a.286.286,0,0,0,.183-.064.245.245,0,0,0,.077-.232.189.189,0,0,0-.182-.188c-.1-.011-.208-.007-.312-.009,0,0-.008,0-.013.008a.109.109,0,0,0,.013.011c.034.008.044.019.044.054Zm1.184.246-.006-.01-.009,0c-.038-.008-.052-.025-.053-.066,0-.065,0-.131,0-.2,0-.05,0-.1,0-.153l.025.028.331.39a.03.03,0,0,0,.039.011v-.173c0-.081,0-.162,0-.243,0-.039.014-.051.053-.057a.044.044,0,0,0,.015-.008l0-.007h-.162l-.009.006a.054.054,0,0,0,.013.007c.046.008.059.023.06.069l0,.267a.141.141,0,0,1,0,.018l-.016-.017c-.095-.111-.189-.224-.285-.335a.037.037,0,0,0-.023-.015c-.037,0-.073,0-.109,0,0,0-.009,0-.013.006s.007.008.012.009c.029.008.039.017.039.048,0,.075,0,.149,0,.224,0,.042,0,.085,0,.128s-.011.049-.046.06l-.011.008,0,0Zm-1.735-.428.016.018c.113.133.227.266.34.4a.028.028,0,0,0,.037.01v-.023l0-.382c0-.046.011-.06.057-.069,0,0,.008-.005.016-.009a.46.46,0,0,0-.179.006l.015,0c.045.007.059.023.059.069,0,.071,0,.143,0,.215v.073l-.015-.016-.29-.342s-.011-.012-.017-.012c-.038,0-.077,0-.115,0l-.011.007s.006.007.01.008c.035.011.04.016.041.053s0,.077,0,.115c0,.075,0,.15,0,.226,0,.04-.009.052-.047.066l-.009.008c.005,0,.009.007.014.007h.13a.051.051,0,0,0,.015-.006l-.012-.009c-.048-.014-.056-.025-.057-.075s0-.083,0-.125ZM25,87.922c-.035.031-.035.031-.075.02a.23.23,0,0,0-.153.008.119.119,0,0,0-.076.088.14.14,0,0,0,.066.155,1.045,1.045,0,0,0,.1.044.872.872,0,0,1,.087.042.1.1,0,0,1,.039.106.1.1,0,0,1-.068.085.168.168,0,0,1-.2-.072c-.009-.016-.015-.034-.023-.051s-.008-.009-.012-.013-.009.011-.009.017c0,.042,0,.083,0,.125a.047.047,0,0,0,.006.015l.013-.007a.076.076,0,0,1,.03-.012.133.133,0,0,1,.037.012.278.278,0,0,0,.182.013.145.145,0,0,0,.118-.108.157.157,0,0,0-.04-.164.269.269,0,0,0-.105-.057.6.6,0,0,1-.094-.039.092.092,0,0,1,.062-.172.143.143,0,0,1,.113.075.061.061,0,0,0,.016.016l.007,0Zm-.482,1.592a.246.246,0,1,0-.245.252A.24.24,0,0,0,24.518,89.514Zm-1.668,0a.239.239,0,0,0-.238-.248.243.243,0,0,0-.253.24.24.24,0,0,0,.239.259A.237.237,0,0,0,22.85,89.515Zm1.615-.468c-.03.015-.06.025-.086.041a.072.072,0,0,0,0,.134.261.261,0,0,0,.091.024.217.217,0,0,0,.151-.032.07.07,0,0,0,.019-.1.152.152,0,0,0-.033-.034c-.025-.018-.052-.032-.077-.049a.261.261,0,0,1-.044-.037.029.029,0,0,1,.022-.05.145.145,0,0,1,.036,0,.149.149,0,0,0,.165-.167c0-.028,0-.035.031-.033a.2.2,0,0,1,.023.007c.013,0,.023,0,.026-.013s0-.024-.018-.023a.14.14,0,0,0-.05.011.039.039,0,0,1-.044,0,.075.075,0,0,0-.03-.009c-.088-.015-.212.1-.151.2a.276.276,0,0,0-.064.058C24.416,89,24.442,89.026,24.465,89.047Zm-1.506-.559V88.5a.058.058,0,0,0,.017.006H23.2s.009,0,.014-.006-.009-.01-.014-.01c-.042,0-.067-.026-.067-.078v-.378c0-.05.015-.067.065-.075a.1.1,0,0,0,.017-.011c-.006,0-.013-.009-.019-.009h-.217a.06.06,0,0,0-.022.009.052.052,0,0,0,.019.011c.052.01.068.03.068.083V88.4a.177.177,0,0,1,0,.032.055.055,0,0,1-.057.054Zm-1.084.786v.007a.141.141,0,0,0,.022.006.053.053,0,0,1,.053.055v.321a.2.2,0,0,1,0,.034.05.05,0,0,1-.042.044l-.017,0-.007.008.008.009a.075.075,0,0,0,.015,0h.415c.009-.046.017-.09.025-.135l-.005-.013-.01.009,0,.012a.152.152,0,0,1-.092.092.353.353,0,0,1-.168.007c-.03-.006-.039-.019-.039-.05v-.339a.05.05,0,0,1,.048-.056c.006,0,.011-.007.017-.01s-.012-.007-.018-.007h-.178Zm1.168-.33h0v-.02l0-.019a.435.435,0,0,1,.118-.225.235.235,0,0,1,.107-.071.106.106,0,0,1,.142.082c0,.014,0,.028,0,.043a.077.077,0,0,0,.008.019s.011-.009.013-.015c.012-.034.022-.068.033-.1a.115.115,0,0,0,0-.018c-.006,0-.013,0-.017.007s-.022.009-.035,0a.188.188,0,0,0-.048-.031.21.21,0,0,0-.131,0,.381.381,0,0,0-.263.339.143.143,0,0,0,.132.155.307.307,0,0,0,.158-.028c.029-.012.033-.008.037.022a.076.076,0,0,0,.009.018.183.183,0,0,0,.013-.016c.015-.042.03-.084.044-.127a.076.076,0,0,0,0-.021c-.006,0-.014.006-.018.012a.268.268,0,0,1-.186.116.089.089,0,0,1-.12-.076C23.044,88.972,23.044,88.958,23.043,88.944Zm.41.022v.024a.091.091,0,0,0,.125.087.159.159,0,0,0,.05-.026.3.3,0,0,0,.1-.162.213.213,0,0,0,0-.12.077.077,0,0,0-.1-.06.205.205,0,0,0-.079.037A.284.284,0,0,0,23.453,88.966Zm.891.026-.006,0a.065.065,0,0,1-.017.016.379.379,0,0,1-.069.043.054.054,0,0,1-.076-.032.122.122,0,0,1,.019-.1c.008-.012.032-.014.049-.02.047-.016.094-.03.14-.049a.079.079,0,0,0,.049-.062.048.048,0,0,0-.047-.063.2.2,0,0,0-.059.008.327.327,0,0,0-.161.133.259.259,0,0,0-.048.139.077.077,0,0,0,.092.083A.192.192,0,0,0,24.34,89Zm.627,0-.006,0L24.952,89a.454.454,0,0,1-.072.045.055.055,0,0,1-.08-.059.36.36,0,0,1,.015-.063c0-.016.016-.022.032-.027a1.416,1.416,0,0,0,.141-.041.163.163,0,0,0,.058-.043.059.059,0,0,0,.009-.071c-.012-.023-.035-.025-.058-.024l-.028,0a.331.331,0,0,0-.224.277.075.075,0,0,0,.085.083.188.188,0,0,0,.136-.076Zm-.894-.4,0,.009.045.011-.012.029-.1.218c-.028.062-.057.123-.083.186a.038.038,0,0,0,0,.036c.007.007.026,0,.037,0A.213.213,0,0,0,24.048,89l0-.016-.07.063-.006-.006c.034-.075.069-.151.1-.226s.071-.15.1-.234Zm-.131.02-.011.026-.1.225c-.028.062-.057.125-.083.188a.034.034,0,0,0,0,.031.035.035,0,0,0,.029,0,.192.192,0,0,0,.094-.086l0-.009-.065.059-.007,0,.1-.226c.033-.076.07-.15.1-.229-.035-.007-.1,0-.1.016Zm.6-.537a.067.067,0,0,0,.077-.031.08.08,0,0,0,0-.086.069.069,0,0,0-.018-.016.056.056,0,0,0-.061.007.048.048,0,0,0-.008.054.043.043,0,0,0,.051.022H24.6C24.6,88.053,24.568,88.056,24.548,88.071Z"/><path class="cls-9" d="M22.3,88.433c.033.039.065.079.1.117.119.136.238.272.359.407a.277.277,0,0,0,.193.092l.014,0a.022.022,0,0,1,.009.016s-.006.008-.011.01a.047.047,0,0,1-.017,0h-.285a.037.037,0,0,1-.032-.015l-.384-.446a.567.567,0,0,0-.061-.059.042.042,0,0,0-.034-.009c-.007,0-.013.02-.013.031,0,.1,0,.208,0,.312a.212.212,0,0,0,.006.043.134.134,0,0,0,.136.111c.015,0,.038-.005.036.019s-.024.011-.037.011h-.418a.037.037,0,0,1-.015,0c-.005,0-.013-.008-.013-.012s.007-.01.012-.013a.068.068,0,0,1,.015,0,.117.117,0,0,0,.117-.114,1.33,1.33,0,0,0,.006-.141c0-.186,0-.372,0-.558,0-.047,0-.095,0-.143a.124.124,0,0,0-.127-.134c-.005,0-.011,0-.015,0s-.012-.007-.011-.011a.02.02,0,0,1,.009-.015.049.049,0,0,1,.021,0h.406a.04.04,0,0,1,.019,0,.018.018,0,0,1,.01.014s0,.01-.01.012a.071.071,0,0,1-.021,0,.124.124,0,0,0-.121.129c0,.13,0,.261,0,.391l0,.015a.126.126,0,0,0,.026-.014,1.2,1.2,0,0,0,.092-.082c.085-.089.169-.178.252-.269a.543.543,0,0,0,.056-.085.048.048,0,0,0-.029-.074c-.015,0-.032,0-.047-.01s-.014-.012-.021-.018c.008,0,.017-.015.025-.014.039,0,.078,0,.117,0l.219,0s.011,0,.015,0a.113.113,0,0,1,.018.012c0,.005-.007.013-.012.015a.582.582,0,0,0-.219.141c-.11.105-.216.213-.324.32Z"/><path class="cls-10" d="M21.891,90.1v-.066h3.122V90.1Z"/><path class="cls-11" d="M23.784,88.35V88.2c0-.057,0-.114,0-.171a.067.067,0,0,0-.064-.076l-.014,0-.008-.009.008-.008.015,0h.15c.007,0,.014.006.022.009-.007,0-.013.011-.02.012-.033.008-.048.021-.049.056,0,.085,0,.17,0,.256v.219a.044.044,0,0,1-.052-.016l-.385-.429-.016-.017c0,.025,0,.047,0,.069,0,.1,0,.207,0,.31,0,.052.015.068.064.081,0,0,.008.006.013.009s-.01.008-.015.008h-.154a.043.043,0,0,1-.013-.005s.007-.01.011-.011a.06.06,0,0,0,.048-.057c0-.045.006-.09.007-.134,0-.095,0-.189,0-.283,0-.035-.011-.047-.045-.056-.006,0-.01-.008-.015-.012s.011-.009.017-.009c.039,0,.078,0,.117,0a.036.036,0,0,1,.022.013l.345.385Z"/><path class="cls-11" d="M24.4,88.241c.037,0,.074,0,.111,0,.006,0,.011,0,.017.008s-.01.011-.017.012c-.048.01-.057.02-.057.07,0,.024,0,.049,0,.074a.033.033,0,0,1-.016.032.37.37,0,0,1-.387.029.236.236,0,0,1-.134-.2.291.291,0,0,1,.057-.233.309.309,0,0,1,.209-.1.329.329,0,0,1,.23.05c.024.016.032.013.048-.012,0-.005.008-.007.012-.011s.007.009.007.014c0,.038,0,.075,0,.113,0,0,0,.008-.006.012a.029.029,0,0,1-.015-.009c-.016-.021-.029-.045-.046-.065a.24.24,0,0,0-.343,0,.3.3,0,0,0-.062.214.259.259,0,0,0,.076.185.218.218,0,0,0,.256.02.056.056,0,0,0,.025-.05v-.065c0-.043-.012-.058-.054-.066a.236.236,0,0,1-.028,0s-.009-.007-.013-.012.009-.009.014-.009C24.326,88.24,24.365,88.241,24.4,88.241Z"/><path class="cls-6" d="M25.013,89.937v.027H21.892v-.027Z"/><path class="cls-11" d="M23.51,89.512v-.171c0-.035-.01-.046-.044-.054a.109.109,0,0,1-.013-.011s.009-.008.013-.008c.1,0,.209,0,.312.009a.189.189,0,0,1,.182.188.245.245,0,0,1-.077.232.286.286,0,0,1-.183.064c-.077,0-.154,0-.23,0a.068.068,0,0,1-.02-.007.045.045,0,0,1,.017-.011c.032-.007.042-.019.043-.055s0-.091,0-.137Zm.074-.006v.143c0,.077.014.091.091.089a.183.183,0,0,0,.187-.121.307.307,0,0,0,.006-.194.167.167,0,0,0-.135-.125.446.446,0,0,0-.1-.006c-.036,0-.046.014-.046.049Z"/><path class="cls-12" d="M24.694,89.758h-.158l0,0,.011-.008c.035-.011.045-.023.046-.06s0-.086,0-.128c0-.075,0-.149,0-.224,0-.031-.01-.04-.039-.048-.005,0-.008,0-.012-.009s.009-.006.013-.006c.036,0,.072,0,.109,0a.037.037,0,0,1,.023.015c.1.111.19.224.285.335l.016.017a.141.141,0,0,0,0-.018l0-.267c0-.046-.014-.061-.06-.069a.054.054,0,0,1-.013-.007l.009-.006h.162l0,.007a.044.044,0,0,1-.015.008c-.039.006-.052.018-.053.057,0,.081,0,.162,0,.243v.173a.03.03,0,0,1-.039-.011l-.331-.39-.025-.028c0,.054,0,.1,0,.153,0,.066,0,.132,0,.2,0,.041.015.058.053.066l.009,0Z"/><path class="cls-13" d="M22.959,89.33v.216c0,.042,0,.083,0,.125s.009.061.057.075l.012.009a.051.051,0,0,1-.015.006h-.13c-.005,0-.009,0-.014-.007l.009-.008c.038-.014.047-.026.047-.066,0-.076,0-.151,0-.226,0-.038,0-.077,0-.115s-.006-.042-.041-.053c0,0-.007,0-.01-.008l.011-.007c.038,0,.077,0,.115,0,.006,0,.012.007.017.012l.29.342.015.016v-.073c0-.072,0-.144,0-.215,0-.046-.014-.062-.059-.069l-.015,0a.46.46,0,0,1,.179-.006c-.008,0-.012.009-.016.009-.046.009-.057.023-.057.069l0,.382v.023a.028.028,0,0,1-.037-.01c-.113-.134-.227-.267-.34-.4Z"/><path class="cls-11" d="M25,87.922l.019.122-.007,0A.061.061,0,0,1,25,88.032a.143.143,0,0,0-.113-.075.092.092,0,0,0-.062.172.6.6,0,0,0,.094.039.269.269,0,0,1,.105.057.157.157,0,0,1,.04.164.145.145,0,0,1-.118.108.278.278,0,0,1-.182-.013.133.133,0,0,0-.037-.012.076.076,0,0,0-.03.012l-.013.007a.047.047,0,0,1-.006-.015c0-.042,0-.083,0-.125,0-.006.006-.012.009-.017s.01.008.012.013.014.035.023.051a.168.168,0,0,0,.2.072.1.1,0,0,0,.068-.085.1.1,0,0,0-.039-.106.872.872,0,0,0-.087-.042,1.045,1.045,0,0,1-.1-.044.14.14,0,0,1-.066-.155.119.119,0,0,1,.076-.088.23.23,0,0,1,.153-.008C24.965,87.953,24.965,87.953,25,87.922Z"/><path class="cls-13" d="M24.518,89.514a.246.246,0,1,1-.491,0,.246.246,0,1,1,.491,0Zm-.074.005a.3.3,0,0,0-.05-.163.147.147,0,0,0-.256.018.309.309,0,0,0,0,.284.141.141,0,0,0,.139.085.143.143,0,0,0,.141-.108A.882.882,0,0,0,24.444,89.519Z"/><path class="cls-13" d="M22.85,89.515a.237.237,0,0,1-.252.251.24.24,0,0,1-.239-.259.243.243,0,0,1,.253-.24A.239.239,0,0,1,22.85,89.515Zm-.074,0a.336.336,0,0,0-.039-.144.15.15,0,0,0-.136-.083.141.141,0,0,0-.134.09.316.316,0,0,0,.005.278.151.151,0,0,0,.279-.019A.976.976,0,0,0,22.776,89.517Z"/><path class="cls-12" d="M24.465,89.047c-.023-.021-.049-.046-.029-.077a.276.276,0,0,1,.064-.058c-.061-.1.063-.212.151-.2a.075.075,0,0,1,.03.009.039.039,0,0,0,.044,0,.14.14,0,0,1,.05-.011c.013,0,.021.009.018.023s-.013.017-.026.013a.2.2,0,0,0-.023-.007c-.028,0-.035,0-.031.033a.149.149,0,0,1-.165.167.145.145,0,0,0-.036,0,.029.029,0,0,0-.022.05.261.261,0,0,0,.044.037c.025.017.052.031.077.049a.152.152,0,0,1,.033.034.07.07,0,0,1-.019.1.217.217,0,0,1-.151.032.261.261,0,0,1-.091-.024.072.072,0,0,1,0-.134C24.405,89.072,24.435,89.062,24.465,89.047Zm.041.181a.509.509,0,0,0,.067-.018.041.041,0,0,0,.016-.072.334.334,0,0,0-.045-.038c-.052-.04-.071-.039-.123,0a.058.058,0,0,0,0,.1A.154.154,0,0,0,24.506,89.228Zm.169-.452c0-.038-.013-.05-.041-.044a.1.1,0,0,0-.036.019.194.194,0,0,0-.063.089.135.135,0,0,0,0,.053c0,.021.016.029.037.025a.069.069,0,0,0,.028-.011A.2.2,0,0,0,24.675,88.776Z"/><path class="cls-9" d="M22.959,88.488l.022,0a.055.055,0,0,0,.057-.054.177.177,0,0,0,0-.032v-.361c0-.053-.016-.073-.068-.083a.052.052,0,0,1-.019-.011.06.06,0,0,1,.022-.009h.217c.006,0,.013.006.019.009a.1.1,0,0,1-.017.011c-.05.008-.065.025-.065.075v.378c0,.052.025.076.067.078,0,0,.009.006.014.01s-.009.006-.014.006h-.221a.058.058,0,0,1-.017-.006Z"/><path class="cls-11" d="M21.875,89.274l.019,0h.178c.006,0,.012,0,.018.007s-.011.009-.017.01a.05.05,0,0,0-.048.056v.339c0,.031.009.044.039.05a.353.353,0,0,0,.168-.007.152.152,0,0,0,.092-.092l0-.012.01-.009.005.013c-.008.045-.016.089-.025.135H21.9a.075.075,0,0,1-.015,0l-.008-.009.007-.008.017,0a.05.05,0,0,0,.042-.044.2.2,0,0,0,0-.034v-.321a.053.053,0,0,0-.053-.055.141.141,0,0,1-.022-.006Z"/><path class="cls-12" d="M23.043,88.944c0,.014,0,.028,0,.041a.089.089,0,0,0,.12.076.268.268,0,0,0,.186-.116c0-.006.012-.008.018-.012a.076.076,0,0,1,0,.021c-.014.043-.029.085-.044.127a.183.183,0,0,1-.013.016.076.076,0,0,1-.009-.018c0-.03-.008-.034-.037-.022a.307.307,0,0,1-.158.028.143.143,0,0,1-.132-.155.381.381,0,0,1,.263-.339.21.21,0,0,1,.131,0,.188.188,0,0,1,.048.031c.013.011.022.014.035,0s.011,0,.017-.007a.115.115,0,0,1,0,.018c-.011.035-.021.069-.033.1,0,.006-.008.01-.013.015a.077.077,0,0,1-.008-.019c0-.015,0-.029,0-.043a.106.106,0,0,0-.142-.082.235.235,0,0,0-.107.071.435.435,0,0,0-.118.225l0,.019v.02Z"/><path class="cls-12" d="M23.453,88.966a.284.284,0,0,1,.1-.22.205.205,0,0,1,.079-.037.077.077,0,0,1,.1.06.213.213,0,0,1,0,.12.3.3,0,0,1-.1.162.159.159,0,0,1-.05.026.091.091,0,0,1-.125-.087Zm.257-.178c0-.022,0-.042-.021-.054a.05.05,0,0,0-.057.007.23.23,0,0,0-.041.035.407.407,0,0,0-.1.232c0,.043.029.062.068.043a.085.085,0,0,0,.025-.017.712.712,0,0,0,.062-.072A.361.361,0,0,0,23.71,88.788Z"/><path class="cls-14" d="M24.344,88.992l0,.012a.192.192,0,0,1-.13.078A.077.077,0,0,1,24.118,89a.259.259,0,0,1,.048-.139.327.327,0,0,1,.161-.133.2.2,0,0,1,.059-.008.048.048,0,0,1,.047.063.079.079,0,0,1-.049.062c-.046.019-.093.033-.14.049-.017.006-.041.008-.049.02a.122.122,0,0,0-.019.1.054.054,0,0,0,.076.032A.379.379,0,0,0,24.321,89a.065.065,0,0,0,.017-.016Zm-.13-.121,0,.007c.037-.011.074-.021.111-.034a.148.148,0,0,0,.043-.029.054.054,0,0,0,.012-.065.048.048,0,0,0-.06,0A.325.325,0,0,0,24.214,88.871Z"/><path class="cls-14" d="M24.971,88.991l0,.015a.188.188,0,0,1-.136.076A.075.075,0,0,1,24.745,89a.331.331,0,0,1,.224-.277l.028,0c.023,0,.046,0,.058.024a.059.059,0,0,1-.009.071.163.163,0,0,1-.058.043,1.416,1.416,0,0,1-.141.041c-.016,0-.028.011-.032.027a.36.36,0,0,0-.015.063.055.055,0,0,0,.08.059A.454.454,0,0,0,24.952,89l.013-.013Zm-.132-.115a.372.372,0,0,0,.142-.047.073.073,0,0,0,.035-.052c0-.024-.009-.039-.032-.036a.119.119,0,0,0-.051.02A.326.326,0,0,0,24.839,88.876Z"/><path class="cls-12" d="M24.077,88.588l.1-.009c-.031.084-.069.158-.1.234s-.068.151-.1.226l.006.006.07-.063,0,.016a.213.213,0,0,1-.084.079c-.011,0-.03.007-.037,0a.038.038,0,0,1,0-.036c.026-.063.055-.124.083-.186l.1-.218.012-.029-.045-.011Z"/><path class="cls-12" d="M23.946,88.608,23.9,88.6c.006-.014.067-.023.1-.016-.03.079-.067.153-.1.229l-.1.226.007,0,.065-.059,0,.009a.192.192,0,0,1-.094.086.035.035,0,0,1-.029,0,.034.034,0,0,1,0-.031c.026-.063.055-.126.083-.188l.1-.225Z"/><path class="cls-15" d="M24.548,88.071c.02-.015.051-.018.055-.05h-.009A.043.043,0,0,1,24.543,88a.048.048,0,0,1,.008-.054.056.056,0,0,1,.061-.007.069.069,0,0,1,.018.016.08.08,0,0,1,0,.086A.067.067,0,0,1,24.548,88.071Z"/><path class="cls-16" d="M23.584,89.506v-.165c0-.035.01-.049.046-.049a.446.446,0,0,1,.1.006.167.167,0,0,1,.135.125.307.307,0,0,1-.006.194.183.183,0,0,1-.187.121c-.077,0-.091-.012-.091-.089Z"/><path class="cls-17" d="M24.444,89.519a.882.882,0,0,1-.023.116.143.143,0,0,1-.141.108.141.141,0,0,1-.139-.085.309.309,0,0,1,0-.284.147.147,0,0,1,.256-.018A.3.3,0,0,1,24.444,89.519Z"/><path class="cls-18" d="M22.776,89.517a.976.976,0,0,1-.025.122.151.151,0,0,1-.279.019.316.316,0,0,1-.005-.278.141.141,0,0,1,.134-.09.15.15,0,0,1,.136.083A.336.336,0,0,1,22.776,89.517Z"/><path class="cls-19" d="M24.506,89.228a.154.154,0,0,1-.088-.031.058.058,0,0,1,0-.1c.052-.039.071-.04.123,0a.334.334,0,0,1,.045.038.041.041,0,0,1-.016.072A.509.509,0,0,1,24.506,89.228Z"/><path class="cls-19" d="M24.675,88.776a.2.2,0,0,1-.08.131.069.069,0,0,1-.028.011c-.021,0-.035,0-.037-.025a.135.135,0,0,1,0-.053.194.194,0,0,1,.063-.089.1.1,0,0,1,.036-.019C24.662,88.726,24.675,88.738,24.675,88.776Z"/><path class="cls-19" d="M23.71,88.788a.361.361,0,0,1-.066.174.712.712,0,0,1-.062.072.085.085,0,0,1-.025.017c-.039.019-.071,0-.068-.043a.407.407,0,0,1,.1-.232.23.23,0,0,1,.041-.035.05.05,0,0,1,.057-.007C23.709,88.746,23.709,88.766,23.71,88.788Z"/><path class="cls-20" d="M24.214,88.871a.325.325,0,0,1,.109-.121.048.048,0,0,1,.06,0,.054.054,0,0,1-.012.065.148.148,0,0,1-.043.029c-.037.013-.074.023-.111.034Z"/><path class="cls-21" d="M24.839,88.876a.326.326,0,0,1,.094-.115.119.119,0,0,1,.051-.02c.023,0,.034.012.032.036a.073.073,0,0,1-.035.052A.372.372,0,0,1,24.839,88.876Z"/><rect class="cls-3" x="1.646" y="97.898" width="69.455" height="0.299"/><path class="cls-1" d="M90.342,97.148a.667.667,0,0,1-.254.54.976.976,0,0,1-.647.21H85.915a.962.962,0,0,1-.644-.21.672.672,0,0,1-.249-.54V88.073a.672.672,0,0,1,.249-.54.967.967,0,0,1,.644-.21h3.526a.981.981,0,0,1,.647.21.667.667,0,0,1,.254.54Zm-1.119-.081V88.154H86.14v8.913Z"/><path class="cls-1" d="M96.724,96.486a1.268,1.268,0,0,1-.475,1.01,1.777,1.777,0,0,1-1.191.4H93.3v2.493H92.225V91.324H93.3v.181l1.271-.134a12.267,12.267,0,0,1,1.264-.088q.892,0,.893.736Zm-1.071-.136V92.127l-2.357.054v4.926h1.48Q95.654,97.107,95.653,96.35Z"/><path class="cls-1" d="M102.817,97.134q0,.764-.9.764H99.34q-.9,0-.9-.764V92.086q0-.762.9-.762h2.575q.9,0,.9.762v2.366l-.362.318H99.477v2.378h2.3v-1.2h1.039Zm-1.039-3.081V92.074h-2.3v1.979Z"/><path class="cls-1" d="M108.684,93.486H107.63V92.127l-1.972.054V97.9h-1.07V91.324h1.07v.181q.531-.067,1.07-.141a8.858,8.858,0,0,1,1.07-.081q.886,0,.886.736Z"/><path class="cls-1" d="M114.47,97.9h-1.054v-.183q-.636.075-1.271.142-.789.083-1.264.082-.877,0-.877-.731v-2.4q0-.757.909-.757h2.519V92.074h-2.3V93.2h-1.038V92.086q0-.762.9-.762h2.575q.9,0,.9.762Zm-1.038-.818V94.756h-2.39v2.365Z"/><path class="cls-1" d="M119.042,97.9h-1.521q-.9,0-.9-.764v-5.02h-.941v-.79h.941V89.276h1.055v2.048h1.368v.79h-1.368v4.993h1.368Z"/><path class="cls-1" d="M121.545,89.884h-1.086V88.748h1.086Zm-.016,8.014h-1.054V91.324h1.054Z"/><path class="cls-1" d="M127.847,97.9h-1.071V92.127l-2.358.054V97.9h-1.07V91.324h1.07v.181q.629-.067,1.264-.141a12.651,12.651,0,0,1,1.271-.081q.894,0,.894.736Z"/><path class="cls-1" d="M134.028,99.627q0,.765-.91.764h-2.543q-.925,0-.925-.966c0-.077,0-.19.012-.342s.011-.259.011-.327h1.055v.871h2.237V97.9H131.2a1.777,1.777,0,0,1-1.191-.4,1.268,1.268,0,0,1-.475-1.01V92.641a1.268,1.268,0,0,1,.418-.97,1.561,1.561,0,0,1,1.1-.388q.185,0,1.907.222v-.181h1.063Zm-1.063-2.52V92.141q-1.27-.068-1.481-.067-.885,0-.885.756v3.52q0,.758.885.757Z"/><path class="cls-1" d="M144.056,97.148a.677.677,0,0,1-.245.54.946.946,0,0,1-.64.21H140a.977.977,0,0,1-.648-.21.667.667,0,0,1-.254-.54V94.465h1.119v2.6h2.721V94.546l-3.477-3.527a1.119,1.119,0,0,1-.363-.8V88.073a.667.667,0,0,1,.254-.54.982.982,0,0,1,.648-.21h3.171a.951.951,0,0,1,.64.21.677.677,0,0,1,.245.54v2.46h-1.118V88.154h-2.721v2.23l3.493,3.528a1.1,1.1,0,0,1,.346.79Z"/><path class="cls-1" d="M150.317,91.324l-1.882,6.52-.782,2.547H146.6l.789-2.547-1.931-6.52h1.1L147.9,96.5l1.352-5.175Z"/><path class="cls-1" d="M155.847,97.134c0,.509-.3.764-.909.764h-2.455q-.911,0-.91-.764V95.641h1.054v1.48h2.165V95.81l-2.8-1.926a.814.814,0,0,1-.4-.7V92.086q0-.762.909-.762h2.423q.909,0,.909.762V93.4h-1.038V92.1h-2.165v1.149l2.825,1.925a.822.822,0,0,1,.4.717Z"/><path class="cls-1" d="M160.361,97.9H158.84q-.9,0-.9-.764v-5.02H157v-.79h.942V89.276h1.054v2.048h1.368v.79h-1.368v4.993h1.368Z"/><path class="cls-1" d="M166.109,97.134q0,.764-.9.764h-2.576q-.9,0-.9-.764V92.086q0-.762.9-.762h2.576q.9,0,.9.762v2.366l-.363.318h-2.978v2.378h2.3v-1.2h1.039Zm-1.039-3.081V92.074h-2.3v1.979Z"/><path class="cls-1" d="M175.749,97.9h-1.07V92.127l-2.334.054V97.9h-1.063V92.127l-2.334.054V97.9h-1.07V91.324h1.07v.181q.628-.067,1.256-.141a12.427,12.427,0,0,1,1.264-.081.946.946,0,0,1,.724.25q.676-.075,1.344-.156.877-.094,1.328-.094.885,0,.885.736Z"/><path class="cls-1" d="M185.753,97.148a.674.674,0,0,1-.245.54.946.946,0,0,1-.64.21H181.7a.978.978,0,0,1-.648-.21.666.666,0,0,1-.253-.54V94.465h1.118v2.6h2.721V94.546l-3.477-3.527a1.118,1.118,0,0,1-.362-.8V88.073a.666.666,0,0,1,.253-.54.984.984,0,0,1,.648-.21h3.171a.951.951,0,0,1,.64.21.674.674,0,0,1,.245.54v2.46h-1.118V88.154h-2.721v2.23l3.493,3.528a1.1,1.1,0,0,1,.346.79Z"/><path class="cls-1" d="M188.739,89.884h-1.086V88.748h1.086Zm-.015,8.014h-1.055V91.324h1.055Z"/><path class="cls-1" d="M198.413,97.9h-1.07V92.127l-2.334.054V97.9h-1.063V92.127l-2.334.054V97.9h-1.07V91.324h1.07v.181q.629-.067,1.256-.141a12.427,12.427,0,0,1,1.264-.081.95.95,0,0,1,.725.25q.675-.075,1.343-.156.877-.094,1.328-.094.885,0,.885.736Z"/><path class="cls-1" d="M204.635,97.9H203.58v-.183q-.643.075-1.279.142a12.471,12.471,0,0,1-1.28.082c-.579,0-.87-.244-.87-.731V91.324h1.055v5.77l2.374-.055V91.324h1.055Z"/><path class="cls-1" d="M207.5,97.9h-1.055V87.323H207.5Z"/><path class="cls-1" d="M213.745,97.9h-1.054v-.183q-.636.075-1.272.142-.787.083-1.264.082-.876,0-.877-.731v-2.4q0-.757.91-.757h2.519V92.074h-2.3V93.2h-1.038V92.086q0-.762.9-.762h2.575q.9,0,.9.762Zm-1.038-.818V94.756h-2.39v2.365Z"/><path class="cls-1" d="M218.317,97.9H216.8q-.9,0-.9-.764v-5.02h-.942v-.79h.942V89.276h1.054v2.048h1.369v.79h-1.369v4.993h1.369Z"/><path class="cls-1" d="M220.819,89.884h-1.085V88.748h1.085ZM220.8,97.9h-1.055V91.324H220.8Z"/><path class="cls-1" d="M227.121,97.134q0,.764-.909.764h-2.688q-.9,0-.9-.764V92.086q0-.762.9-.762h2.688q.909,0,.909.762Zm-1.07-.027V92.114h-2.359v4.993Z"/><path class="cls-1" d="M233.366,97.9H232.3V92.127l-2.358.054V97.9h-1.071V91.324h1.071v.181c.419-.045.839-.092,1.263-.141a12.685,12.685,0,0,1,1.272-.081q.892,0,.893.736Z"/><path class="cls-1" d="M244.288,92.789h-.926V97.9H239.29a.943.943,0,0,1-.639-.21.672.672,0,0,1-.246-.54V93.553a.724.724,0,0,1,.411-.676l.941-.513c-.3-.149-.587-.3-.877-.447a.833.833,0,0,1-.442-.7V88.073a.672.672,0,0,1,.249-.54.953.953,0,0,1,.635-.21h3.188a.979.979,0,0,1,.647.21.667.667,0,0,1,.254.54v2.216h-1.119V88.154H239.54v3.182l1.135.636h3.613Zm-2.028,4.278V92.789h-1.6l-1.15.623v3.655Z"/><path class="cls-1" d="M253.931,97.9h-1.112l-.442-2.352h-2.5l-.442,2.352h-1.079v-.027L250.6,87.3h1.1Zm-1.7-3.183-1.1-5.73-1.111,5.73Z"/><path class="cls-1" d="M259.532,97.134q0,.764-.909.764h-2.455q-.909,0-.909-.764V95.641h1.054v1.48h2.165V95.81l-2.8-1.926a.812.812,0,0,1-.4-.7V92.086c0-.508.3-.762.909-.762h2.423q.909,0,.909.762V93.4h-1.038V92.1h-2.165v1.149l2.825,1.925a.821.821,0,0,1,.394.717Z"/><path class="cls-1" d="M265.447,97.134q0,.764-.909.764h-2.455q-.909,0-.909-.764V95.641h1.054v1.48h2.165V95.81l-2.8-1.926a.812.812,0,0,1-.4-.7V92.086c0-.508.3-.762.909-.762h2.423q.909,0,.909.762V93.4h-1.038V92.1h-2.165v1.149l2.825,1.925a.821.821,0,0,1,.394.717Z"/><path class="cls-1" d="M271.524,97.134q0,.764-.9.764h-2.576q-.9,0-.9-.764V92.086q0-.762.9-.762h2.576q.9,0,.9.762v2.366l-.363.318h-2.978v2.378h2.3v-1.2h1.039Zm-1.039-3.081V92.074h-2.3v1.979Z"/><path class="cls-1" d="M277.511,97.134c0,.509-.3.764-.909.764h-2.455q-.91,0-.91-.764V95.641h1.054v1.48h2.165V95.81l-2.8-1.926a.814.814,0,0,1-.4-.7V92.086q0-.762.909-.762h2.423c.607,0,.909.254.909.762V93.4h-1.038V92.1h-2.165v1.149l2.825,1.925a.822.822,0,0,1,.4.717Z"/><path class="cls-1" d="M283.426,97.134c0,.509-.3.764-.909.764h-2.455q-.911,0-.91-.764V95.641h1.054v1.48h2.165V95.81l-2.8-1.926a.814.814,0,0,1-.4-.7V92.086q0-.762.909-.762H282.5c.607,0,.909.254.909.762V93.4h-1.038V92.1h-2.165v1.149l2.825,1.925a.822.822,0,0,1,.395.717Z"/><path class="cls-1" d="M292.994,97.9h-1.07V92.127l-2.334.054V97.9h-1.063V92.127l-2.334.054V97.9h-1.07V91.324h1.07v.181q.629-.067,1.256-.141a12.427,12.427,0,0,1,1.264-.081.95.95,0,0,1,.725.25q.675-.075,1.343-.156.877-.094,1.328-.094.885,0,.885.736Z"/><path class="cls-1" d="M299.111,97.134q0,.764-.9.764h-2.576q-.9,0-.9-.764V92.086q0-.762.9-.762h2.576q.9,0,.9.762v2.366l-.362.318h-2.978v2.378h2.3v-1.2h1.038Zm-1.038-3.081V92.074h-2.3v1.979Z"/><path class="cls-1" d="M305.38,97.9h-1.07V92.127l-2.359.054V97.9h-1.07V91.324h1.07v.181q.628-.067,1.264-.141a12.668,12.668,0,0,1,1.271-.081q.894,0,.894.736Z"/><path class="cls-1" d="M309.928,97.9h-1.522q-.9,0-.9-.764v-5.02h-.941v-.79h.941V89.276h1.055v2.048h1.368v.79H308.56v4.993h1.368Z"/><path class="cls-1" d="M318.99,88.154h-1.947V97.9h-1.119V88.154H313.96v-.831h5.03Z"/><path class="cls-1" d="M324.672,97.134q0,.764-.909.764h-2.689q-.9,0-.9-.764V92.086q0-.762.9-.762h2.689q.909,0,.909.762Zm-1.07-.027V92.114h-2.359v4.993Z"/><path class="cls-1" d="M330.917,97.134q0,.764-.909.764h-2.689q-.9,0-.9-.764V92.086q0-.762.9-.762h2.689q.909,0,.909.762Zm-1.07-.027V92.114h-2.359v4.993Z"/><path class="cls-1" d="M333.782,97.9h-1.054V87.323h1.054Z"/><path class="cls-5" d="M21.76,31.31c0-.459.22-.73.531-.73s.53.271.53.73-.218.744-.53.744S21.76,31.776,21.76,31.31Zm.878,0c0-.357-.138-.569-.347-.569s-.348.212-.348.569.14.583.348.583S22.638,31.675,22.638,31.31Z"/><path class="cls-5" d="M23.059,31.844l.106-.126a.572.572,0,0,0,.4.175c.189,0,.3-.093.3-.223,0-.152-.108-.2-.247-.256l-.2-.09a.4.4,0,0,1-.3-.367.407.407,0,0,1,.452-.377.6.6,0,0,1,.426.176l-.093.117a.476.476,0,0,0-.339-.132c-.16,0-.268.078-.268.206s.129.186.247.234l.193.088c.171.07.306.169.306.379a.433.433,0,0,1-.489.406A.691.691,0,0,1,23.059,31.844Z"/><path class="cls-5" d="M24.318,31.844l.1-.126a.574.574,0,0,0,.405.175c.189,0,.3-.093.3-.223,0-.152-.108-.2-.247-.256l-.2-.09a.38.38,0,0,1,.156-.744.594.594,0,0,1,.425.176l-.092.117a.476.476,0,0,0-.339-.132c-.16,0-.268.078-.268.206s.129.186.247.234l.193.088c.171.07.306.169.306.379a.433.433,0,0,1-.489.406A.691.691,0,0,1,24.318,31.844Z"/><path class="cls-5" d="M25.966,30.606h.2l.465,1.422h-.19l-.238-.793c-.048-.158-.095-.315-.137-.479h-.008c-.044.164-.088.321-.137.479l-.242.793H25.5Zm-.219.843h.634V31.6h-.634Z"/><path class="cls-5" d="M27.238,30.76h-.457v-.154h1.091v.154h-.457v1.268h-.177Z"/><path class="cls-5" d="M29.317,30.975H29.5l.236.6q.06.159.114.312h.008c.036-.1.07-.206.112-.312l.236-.6h.168l-.425,1.053h-.2Z"/><path class="cls-5" d="M30.675,31.878h.388V30.864h-.3v-.117a.925.925,0,0,0,.346-.1h.13v1.233h.35v.15h-.912Z"/><path class="cls-5" d="M21.811,33.212h.215l.193.607.068.23H22.3l.065-.23.2-.607h.215v1.422H22.6v-.711c0-.138.021-.382.029-.5h-.006l-.078.278-.2.559h-.126L22.03,33.7l-.08-.278h0c.013.121.03.365.03.5v.711h-.164Z"/><path class="cls-5" d="M23.087,34.361c0-.237.214-.351.743-.395a.247.247,0,0,0-.272-.264.7.7,0,0,0-.358.126l-.069-.122a.882.882,0,0,1,.457-.151.386.386,0,0,1,.417.433v.646h-.146l-.014-.143h-.007a.682.682,0,0,1-.4.169A.313.313,0,0,1,23.087,34.361Zm.743,0v-.273c-.438.035-.571.124-.571.263,0,.119.105.167.224.167A.551.551,0,0,0,23.83,34.358Z"/><path class="cls-5" d="M24.3,34.109a.5.5,0,0,1,.464-.554.429.429,0,0,1,.307.134h0l-.009-.193v-.405h.175v1.543H25.1l-.014-.139H25.08a.485.485,0,0,1-.335.165C24.48,34.66,24.3,34.46,24.3,34.109Zm.766.243v-.524a.372.372,0,0,0-.267-.122c-.176,0-.32.161-.32.4s.114.4.3.4A.382.382,0,0,0,25.069,34.352Z"/><path class="cls-5" d="M25.579,34.1a.522.522,0,0,1,.522-.55.447.447,0,0,1,.467.494.654.654,0,0,1-.008.108h-.866v-.139h.763l-.044.05c0-.249-.12-.372-.308-.372a.366.366,0,0,0-.353.409.376.376,0,0,0,.4.412.542.542,0,0,0,.312-.1l.063.117a.689.689,0,0,1-.4.126A.525.525,0,0,1,25.579,34.1Z"/><path class="cls-5" d="M28.616,33.726h-.473V33.58h.648v1.054h-.175Zm-.069-.505a.139.139,0,1,1,.278,0,.139.139,0,1,1-.278,0Z"/><path class="cls-5" d="M29.408,33.58h.143l.015.178h.008a.525.525,0,0,1,.386-.2c.242,0,.353.147.353.424v.655h-.174V34c0-.2-.068-.292-.234-.292-.122,0-.205.062-.322.188v.735h-.175Z"/><path class="cls-5" d="M31.9,34.1v-.884h.179V34.1c0,.292.124.4.288.4s.293-.106.293-.4v-.889h.171V34.1c0,.408-.194.564-.464.564S31.9,34.5,31.9,34.1Z"/><path class="cls-5" d="M33.192,33.212h.18v.711h.006l.579-.711h.2l-.787.969v.453h-.18Zm.392.629.108-.143.518.936h-.2Z"/><path class="cls-5" d="M21.842,35.819h.342c.414,0,.64.253.64.7s-.226.717-.632.717h-.35Zm.329,1.272c.313,0,.47-.208.47-.568s-.157-.555-.47-.555h-.152v1.123Z"/><path class="cls-5" d="M23.061,36.711a.523.523,0,0,1,.523-.55.447.447,0,0,1,.467.494.814.814,0,0,1-.008.109h-.866v-.139h.763l-.045.05c0-.25-.12-.373-.307-.373a.366.366,0,0,0-.354.409.377.377,0,0,0,.4.412.541.541,0,0,0,.311-.1l.064.118a.691.691,0,0,1-.4.125A.526.526,0,0,1,23.061,36.711Z"/><path class="cls-5" d="M24.373,36.187h.143l.014.135h.007a.535.535,0,0,1,.354-.161c.276,0,.423.21.423.538a.5.5,0,0,1-.465.567.483.483,0,0,1-.306-.136h0l.008.2v.355h-.174Zm.762.512c0-.232-.084-.386-.289-.386a.43.43,0,0,0-.3.156v.524a.424.424,0,0,0,.272.122C25,37.115,25.135,36.958,25.135,36.7Z"/><path class="cls-5" d="M25.6,36.967c0-.236.215-.351.743-.394a.245.245,0,0,0-.271-.264.7.7,0,0,0-.358.125l-.069-.121a.879.879,0,0,1,.456-.152.386.386,0,0,1,.417.434v.645h-.145l-.015-.143h-.006a.679.679,0,0,1-.4.169A.313.313,0,0,1,25.6,36.967Zm.743,0v-.273c-.438.034-.57.123-.57.262,0,.119.105.167.223.167A.545.545,0,0,0,26.347,36.965Z"/><path class="cls-5" d="M27,36.187h.145l.017.249h0a.539.539,0,0,1,.457-.275.413.413,0,0,1,.2.044l-.04.153a.5.5,0,0,0-.189-.034.481.481,0,0,0-.422.3v.615H27Z"/><path class="cls-5" d="M28.387,36.83v-.5H28.1V36.2l.3-.011.024-.338h.145v.338h.5v.145h-.5v.5c0,.188.061.286.259.286a.639.639,0,0,0,.244-.048l.038.133a.888.888,0,0,1-.32.062C28.484,37.266,28.387,37.091,28.387,36.83Z"/><path class="cls-5" d="M29.334,36.187h.139l.015.139h0a.254.254,0,0,1,.234-.165c.1,0,.164.061.194.182.059-.113.122-.182.24-.182.143,0,.227.115.227.325v.754h-.173V36.5c0-.121-.033-.184-.109-.184s-.11.054-.164.162v.763H29.78V36.5c0-.121-.029-.184-.105-.184s-.118.054-.168.162v.763h-.173Z"/><path class="cls-5" d="M30.614,36.711a.522.522,0,0,1,.522-.55.447.447,0,0,1,.468.494.665.665,0,0,1-.009.109H30.73v-.139h.762l-.044.05c0-.25-.12-.373-.308-.373a.366.366,0,0,0-.353.409.377.377,0,0,0,.4.412.541.541,0,0,0,.311-.1l.064.118a.691.691,0,0,1-.4.125A.526.526,0,0,1,30.614,36.711Z"/><path class="cls-5" d="M31.925,36.187h.143l.015.178h.009a.524.524,0,0,1,.385-.2c.242,0,.354.148.354.425v.654h-.175v-.63c0-.2-.067-.293-.234-.293-.122,0-.2.063-.322.189v.734h-.175Z"/><path class="cls-5" d="M33.422,36.83v-.5h-.291V36.2l.3-.011.024-.338H33.6v.338h.5v.145h-.5v.5c0,.188.061.286.259.286a.639.639,0,0,0,.244-.048l.038.133a.884.884,0,0,1-.32.062C33.519,37.266,33.422,37.091,33.422,36.83Z"/><path class="cls-5" d="M35.632,36.716a.507.507,0,1,1,.506.55A.51.51,0,0,1,35.632,36.716Zm.832,0c0-.243-.13-.406-.326-.406s-.327.163-.327.406.131.4.327.4S36.464,36.956,36.464,36.716Z"/><path class="cls-5" d="M36.982,36.2l.3-.011h.6v.145h-.893Zm.293-.1a.38.38,0,0,1,.412-.427.746.746,0,0,1,.3.061l-.04.135a.539.539,0,0,0-.238-.05c-.183,0-.257.106-.257.275V37.24h-.172Z"/><path class="cls-5" d="M39.483,37.086h.343V35.973h-.343v-.154h.863v.154H40v1.113h.343v.154h-.863Z"/><path class="cls-5" d="M40.737,36.187h.143l.015.178H40.9a.528.528,0,0,1,.386-.2c.242,0,.353.148.353.425v.654h-.174v-.63c0-.2-.067-.293-.234-.293-.122,0-.2.063-.322.189v.734h-.175Z"/><path class="cls-5" d="M42.017,36.2l.3-.011h.6v.145h-.893Zm.293-.1a.38.38,0,0,1,.412-.427.746.746,0,0,1,.3.061l-.04.135a.539.539,0,0,0-.238-.05c-.183,0-.257.106-.257.275V37.24H42.31Z"/><path class="cls-5" d="M43.185,36.716a.507.507,0,1,1,.506.55A.51.51,0,0,1,43.185,36.716Zm.832,0c0-.243-.131-.406-.326-.406s-.327.163-.327.406.131.4.327.4S44.017,36.956,44.017,36.716Z"/><path class="cls-5" d="M44.623,36.187h.145l.017.249h0a.539.539,0,0,1,.457-.275.413.413,0,0,1,.2.044l-.04.153a.492.492,0,0,0-.189-.034.481.481,0,0,0-.422.3v.615h-.174Z"/><path class="cls-5" d="M45.7,36.187h.14l.014.139h.005a.252.252,0,0,1,.233-.165c.1,0,.165.061.194.182.059-.113.122-.182.24-.182.143,0,.227.115.227.325v.754h-.172V36.5c0-.121-.034-.184-.11-.184s-.11.054-.164.162v.763h-.16V36.5c0-.121-.03-.184-.105-.184s-.118.054-.169.162v.763H45.7Z"/><path class="cls-5" d="M47,36.967c0-.236.214-.351.743-.394a.247.247,0,0,0-.272-.264.7.7,0,0,0-.358.125l-.069-.121a.882.882,0,0,1,.457-.152.386.386,0,0,1,.417.434v.645h-.146l-.014-.143h-.007a.676.676,0,0,1-.4.169A.312.312,0,0,1,47,36.967Zm.743,0v-.273c-.438.034-.571.123-.571.262,0,.119.1.167.224.167A.549.549,0,0,0,47.747,36.965Z"/><path class="cls-5" d="M48.527,36.83v-.5h-.29V36.2l.3-.011.023-.338H48.7v.338h.5v.145h-.5v.5c0,.188.061.286.26.286a.643.643,0,0,0,.244-.048l.038.133a.89.89,0,0,1-.321.062C48.625,37.266,48.527,37.091,48.527,36.83Z"/><path class="cls-5" d="M50.016,36.332h-.474v-.145h.649V37.24h-.175Zm-.07-.5a.139.139,0,1,1,.278,0,.139.139,0,0,1-.278,0Z"/><path class="cls-5" d="M50.78,36.716a.538.538,0,0,1,.571-.555.509.509,0,0,1,.372.154l-.086.115a.416.416,0,0,0-.28-.12.382.382,0,0,0-.4.406.377.377,0,0,0,.394.4.481.481,0,0,0,.316-.133l.077.117a.6.6,0,0,1-.406.165A.523.523,0,0,1,50.78,36.716Z"/><path class="cls-5" d="M52.02,37.1l.08-.119a.715.715,0,0,0,.444.143c.173,0,.257-.073.257-.162s-.04-.137-.318-.2-.4-.15-.4-.308.145-.3.425-.3a.757.757,0,0,1,.413.134l-.084.115a.6.6,0,0,0-.344-.11c-.172,0-.235.071-.235.152s.088.129.3.175c.339.076.421.162.421.325s-.162.314-.455.314A.88.88,0,0,1,52.02,37.1Z"/><path class="cls-5" d="M21.863,38.425h.18v.71h.006l.579-.71h.2l-.787.968v.453h-.18Zm.392.628.107-.143.518.936h-.2Z"/><path class="cls-5" d="M23.581,38.938h-.473v-.145h.648v1.053h-.175Zm-.069-.5a.139.139,0,1,1,.278,0,.139.139,0,0,1-.278,0Z"/><path class="cls-5" d="M24.373,38.793h.143l.014.178h.009a.526.526,0,0,1,.385-.2c.243,0,.354.147.354.425v.654H25.1v-.63c0-.2-.068-.293-.234-.293-.122,0-.205.063-.323.189v.734h-.174Z"/><path class="cls-5" d="M25.587,40.039a.292.292,0,0,1,.169-.234V39.8a.189.189,0,0,1-.105-.173.254.254,0,0,1,.122-.2v-.009a.337.337,0,0,1-.127-.273.38.38,0,0,1,.4-.377.41.41,0,0,1,.152.026h.423v.145h-.265a.325.325,0,0,1,.086.213.363.363,0,0,1-.4.362.449.449,0,0,1-.172-.039.143.143,0,0,0-.08.121c0,.082.078.121.212.121h.23c.263,0,.39.07.39.247,0,.2-.222.368-.569.368C25.76,40.331,25.587,40.226,25.587,40.039Zm.87-.048c0-.1-.078-.127-.234-.127h-.2a.567.567,0,0,1-.156-.018c-.1.054-.13.115-.13.175,0,.111.116.181.334.181C26.31,40.2,26.457,40.1,26.457,39.991Zm-.173-.847a.236.236,0,1,0-.236.249A.234.234,0,0,0,26.284,39.144Z"/><path class="cls-5" d="M26.844,39.707l.08-.119a.715.715,0,0,0,.444.143c.173,0,.257-.073.257-.162s-.04-.137-.318-.2-.4-.15-.4-.308.145-.3.426-.3a.757.757,0,0,1,.412.134l-.084.115a.6.6,0,0,0-.344-.11c-.172,0-.235.071-.235.152s.089.129.3.175c.339.076.421.162.421.325s-.162.314-.455.314A.88.88,0,0,1,26.844,39.707Z"/><path class="cls-5" d="M29.349,39.135c0-.457.259-.736.619-.736a.512.512,0,0,1,.379.173l-.1.115a.366.366,0,0,0-.278-.128c-.263,0-.436.219-.436.572s.173.581.436.581a.392.392,0,0,0,.309-.156l.1.11a.53.53,0,0,1-.428.206C29.61,39.872,29.349,39.6,29.349,39.135Z"/><path class="cls-5" d="M30.6,39.322a.507.507,0,1,1,.506.55A.51.51,0,0,1,30.6,39.322Zm.832,0c0-.243-.131-.406-.326-.406s-.327.163-.327.406.131.4.327.4S31.429,39.562,31.429,39.322Z"/><path class="cls-5" d="M32.248,39.493V38.449h-.363V38.3h.537v1.2c0,.152.081.217.2.217a.455.455,0,0,0,.191-.048l.044.134a.593.593,0,0,1-.273.063C32.368,39.872,32.248,39.742,32.248,39.493Z"/><path class="cls-5" d="M33.506,39.493V38.449h-.362V38.3h.537v1.2c0,.152.08.217.2.217a.463.463,0,0,0,.192-.048l.044.134a.594.594,0,0,1-.274.063C33.627,39.872,33.506,39.742,33.506,39.493Z"/><path class="cls-5" d="M34.39,39.317a.523.523,0,0,1,.523-.55.447.447,0,0,1,.467.494.814.814,0,0,1-.008.109h-.866v-.139h.763l-.045.05c0-.249-.12-.373-.307-.373a.366.366,0,0,0-.354.409.377.377,0,0,0,.4.412.547.547,0,0,0,.312-.1l.063.117a.681.681,0,0,1-.4.126A.526.526,0,0,1,34.39,39.317Z"/><path class="cls-5" d="M35.657,40.039a.292.292,0,0,1,.169-.234V39.8a.189.189,0,0,1-.105-.173.256.256,0,0,1,.122-.2v-.009a.34.34,0,0,1-.127-.273.38.38,0,0,1,.4-.377.408.408,0,0,1,.151.026h.423v.145h-.265a.321.321,0,0,1,.087.213.363.363,0,0,1-.4.362.45.45,0,0,1-.173-.039.145.145,0,0,0-.08.121c0,.082.078.121.213.121h.229c.263,0,.39.07.39.247,0,.2-.221.368-.569.368C35.83,40.331,35.657,40.226,35.657,40.039Zm.87-.048c0-.1-.078-.127-.233-.127h-.2a.555.555,0,0,1-.155-.018c-.1.054-.131.115-.131.175,0,.111.116.181.335.181C36.38,40.2,36.527,40.1,36.527,39.991Zm-.172-.847a.236.236,0,1,0-.236.249A.235.235,0,0,0,36.355,39.144Z"/><path class="cls-5" d="M36.908,39.317a.522.522,0,0,1,.522-.55.447.447,0,0,1,.468.494.665.665,0,0,1-.009.109h-.865v-.139h.762l-.044.05c0-.249-.12-.373-.308-.373a.366.366,0,0,0-.353.409.377.377,0,0,0,.4.412.541.541,0,0,0,.311-.1l.064.117a.684.684,0,0,1-.4.126A.525.525,0,0,1,36.908,39.317Z"/><path class="cls-5" d="M39.565,38.425h.174v1.267h.683v.154h-.857Z"/><path class="cls-5" d="M40.668,39.322a.507.507,0,1,1,.505.55A.509.509,0,0,1,40.668,39.322Zm.831,0c0-.243-.13-.406-.326-.406s-.327.163-.327.406.131.4.327.4S41.5,39.562,41.5,39.322Z"/><path class="cls-5" d="M42,38.793h.143l.014.178h.009a.526.526,0,0,1,.385-.2c.243,0,.354.147.354.425v.654h-.174v-.63c0-.2-.068-.293-.234-.293-.122,0-.205.063-.322.189v.734H42Z"/><path class="cls-5" d="M43.185,39.322a.5.5,0,0,1,.464-.555.435.435,0,0,1,.307.134h0l-.009-.193V38.3h.175v1.543h-.143l-.015-.139h-.006a.487.487,0,0,1-.335.165C43.362,39.872,43.185,39.673,43.185,39.322Zm.766.242V39.04a.37.37,0,0,0-.267-.121c-.177,0-.32.16-.32.4s.114.4.3.4A.383.383,0,0,0,43.951,39.564Z"/><path class="cls-5" d="M44.444,39.322a.507.507,0,1,1,.5.55A.51.51,0,0,1,44.444,39.322Zm.832,0c0-.243-.131-.406-.327-.406s-.326.163-.326.406.131.4.326.4S45.276,39.562,45.276,39.322Z"/><path class="cls-5" d="M45.772,38.793h.143l.015.178h.009a.524.524,0,0,1,.385-.2c.242,0,.353.147.353.425v.654H46.5v-.63c0-.2-.067-.293-.234-.293-.122,0-.2.063-.322.189v.734h-.175Z"/><path class="cls-5" d="M21.722,41.753c0-.443.247-.715.569-.715s.568.272.568.715-.246.723-.568.723S21.722,42.2,21.722,41.753Zm1.041,0c0-.38-.19-.627-.472-.627s-.472.247-.472.627.19.632.472.632S22.763,42.132,22.763,41.753Zm-.8,0a.372.372,0,0,1,.347-.41.285.285,0,0,1,.219.1l-.071.085a.2.2,0,0,0-.142-.066c-.128,0-.212.12-.212.289,0,.19.08.307.2.307a.251.251,0,0,0,.171-.073l.063.093a.328.328,0,0,1-.238.1C22.118,42.182,21.967,42.021,21.967,41.753Z"/><path class="cls-5" d="M24.72,41.185h-.457v-.154h1.091v.154H24.9v1.268H24.72Z"/><path class="cls-5" d="M25.562,41.928a.507.507,0,1,1,.5.55A.51.51,0,0,1,25.562,41.928Zm.832,0c0-.243-.131-.4-.327-.4s-.326.162-.326.4.131.4.326.4S26.394,42.169,26.394,41.928Z"/><path class="cls-5" d="M26.817,41.4h.139l.014.139h.005a.254.254,0,0,1,.233-.165c.1,0,.165.061.194.183.059-.113.122-.183.24-.183.143,0,.227.115.227.326v.754H27.7v-.742c0-.121-.034-.184-.11-.184s-.109.054-.164.163v.763h-.16v-.742c0-.121-.029-.184-.105-.184s-.118.054-.169.163v.763h-.172Z"/><path class="cls-5" d="M29.379,41.031h.178v.594h.573v-.594h.179v1.422H30.13v-.668h-.573v.668h-.178Z"/><path class="cls-5" d="M30.614,41.924a.522.522,0,0,1,.522-.551.448.448,0,0,1,.468.5.642.642,0,0,1-.009.108H30.73v-.139h.762l-.044.05c0-.249-.12-.372-.308-.372a.366.366,0,0,0-.353.409.376.376,0,0,0,.4.411.548.548,0,0,0,.311-.1l.064.117a.691.691,0,0,1-.4.125A.525.525,0,0,1,30.614,41.924Z"/><path class="cls-5" d="M32.035,41.4h.145l.017.25h0a.538.538,0,0,1,.457-.276.413.413,0,0,1,.2.044l-.04.154a.493.493,0,0,0-.189-.035.479.479,0,0,0-.421.3v.616h-.175Z"/><path class="cls-5" d="M33.294,41.4h.145l.017.25h0a.536.536,0,0,1,.457-.276.413.413,0,0,1,.2.044l-.04.154a.5.5,0,0,0-.189-.035.48.48,0,0,0-.422.3v.616h-.174Z"/><path class="cls-5" d="M34.91,41.545h-.473V41.4h.648v1.054H34.91Zm-.069-.505a.139.139,0,1,1,.139.139A.133.133,0,0,1,34.841,41.04Z"/><path class="cls-5" d="M35.7,41.4h.143l.014.178h.009a.526.526,0,0,1,.386-.2c.242,0,.353.148.353.425v.655h-.174v-.631c0-.2-.068-.292-.234-.292-.122,0-.2.062-.322.188v.735H35.7Z"/><path class="cls-5" d="M36.916,42.645a.289.289,0,0,1,.169-.233V42.4a.192.192,0,0,1-.105-.174.256.256,0,0,1,.122-.2v-.009a.337.337,0,0,1-.127-.273.381.381,0,0,1,.4-.377.408.408,0,0,1,.151.026h.423v.146h-.265a.318.318,0,0,1,.087.212.363.363,0,0,1-.4.362.432.432,0,0,1-.173-.039.143.143,0,0,0-.08.121c0,.083.078.122.213.122h.229c.263,0,.39.069.39.247,0,.2-.222.368-.569.368C37.089,42.938,36.916,42.832,36.916,42.645Zm.87-.047c0-.1-.078-.128-.234-.128h-.2a.569.569,0,0,1-.156-.017c-.1.054-.13.114-.13.175,0,.111.116.18.335.18C37.639,42.808,37.786,42.706,37.786,42.6Zm-.173-.848a.236.236,0,1,0-.235.25A.235.235,0,0,0,37.613,41.75Z"/><path class="cls-5" d="M38.436,42.8a.387.387,0,0,0,.266-.379l-.038-.2.117.171a.144.144,0,0,1-.117.05.152.152,0,0,1-.164-.163.158.158,0,0,1,.168-.164c.124,0,.19.106.19.277a.533.533,0,0,1-.371.52Z"/><path class="cls-5" d="M40.7,42.347c.455-.414.7-.657.7-.887a.255.255,0,0,0-.29-.269.46.46,0,0,0-.323.165l-.1-.1a.6.6,0,0,1,.445-.21.4.4,0,0,1,.438.408c0,.259-.253.517-.617.857.084-.006.17-.01.25-.01h.44v.154H40.7Z"/><path class="cls-5" d="M41.949,41.757c0-.464.183-.713.483-.713s.482.249.482.713-.183.721-.482.721S41.949,42.216,41.949,41.757Zm.8,0c0-.4-.133-.568-.32-.568s-.321.172-.321.568.133.576.321.576S42.752,42.154,42.752,41.757Zm-.451-.015a.131.131,0,1,1,.131.145A.133.133,0,0,1,42.3,41.742Z"/><path class="cls-5" d="M43.213,42.347c.454-.414.7-.657.7-.887a.255.255,0,0,0-.291-.269.458.458,0,0,0-.322.165l-.1-.1a.594.594,0,0,1,.444-.21.4.4,0,0,1,.438.408c0,.259-.252.517-.617.857.084-.006.171-.01.251-.01h.44v.154h-.945Z"/><path class="cls-5" d="M44.522,42.3h.387V41.289h-.3v-.117a.944.944,0,0,0,.345-.1h.131V42.3h.35v.15h-.912Z"/></g></g></svg>