<svg id="Layer_1" data-name="Layer 1" xmlns="http://www.w3.org/2000/svg" viewBox="0 0 337.141 111.922"><defs><style>.cls-1,.cls-24{fill:#008d36;}.cls-2{font-size:98.274px;}.cls-2,.cls-8,.cls-9{fill:#1d1d1b;}.cls-2,.cls-24,.cls-8,.cls-9{font-family:AgencyFB-Reg, Agency FB;}.cls-3{fill:#3c3c3b;}.cls-4{fill:#f39200;}.cls-5{fill:#575756;}.cls-6{fill:#fff;}.cls-7{fill:#f6f6f6;}.cls-8{font-size:1.99px;}.cls-9{font-size:1.269px;}.cls-10{fill:#e12927;}.cls-11{fill:#fffcfc;}.cls-12{fill:#fff9f9;}.cls-13{fill:#fffbfb;}.cls-14{fill:#fef9f9;}.cls-15{fill:snow;}.cls-16{fill:#fef8f8;}.cls-17{fill:#fffbfa;}.cls-18{fill:#e22927;}.cls-19{fill:#e22928;}.cls-20{fill:#e22a28;}.cls-21{fill:#e22b29;}.cls-22{fill:#e22c2a;}.cls-23{fill:#e22d2a;}.cls-24{font-size:13.839px;}</style></defs><path class="cls-1" d="M1.846,12.079H71a.1.1,0,0,1,.1.1V81.13a.1.1,0,0,1-.1.1H1.746a.1.1,0,0,1-.1-.1V12.279A.2.2,0,0,1,1.846,12.079Z"/><text class="cls-2" transform="translate(76.918 86.677) scale(1.309 1)">OSSAT</text><text x="-31.34" y="-122.556"/><rect class="cls-3" x="11.348" y="21.612" width="50.22" height="50.22"/><rect class="cls-4" x="6.723" y="10.433" width="0.997" height="3.292"/><rect class="cls-4" x="9.495" y="10.433" width="0.997" height="3.292"/><rect class="cls-4" x="12.237" y="10.433" width="0.997" height="3.292"/><rect class="cls-4" x="15.259" y="10.433" width="0.997" height="3.292"/><rect class="cls-4" x="18" y="10.433" width="0.997" height="3.292"/><rect class="cls-4" x="20.773" y="10.433" width="0.997" height="3.292"/><rect class="cls-4" x="23.515" y="10.433" width="0.997" height="3.292"/><rect class="cls-4" x="26.365" y="10.433" width="0.997" height="3.292"/><rect class="cls-4" x="29.107" y="10.433" width="0.997" height="3.292"/><rect class="cls-4" x="31.879" y="10.433" width="0.997" height="3.292"/><rect class="cls-4" x="34.621" y="10.433" width="0.997" height="3.292"/><rect class="cls-4" x="37.394" y="10.433" width="0.997" height="3.292"/><rect class="cls-4" x="40.135" y="10.433" width="0.997" height="3.292"/><rect class="cls-4" x="42.908" y="10.433" width="0.997" height="3.292"/><rect class="cls-4" x="45.649" y="10.433" width="0.997" height="3.292"/><rect class="cls-4" x="48.235" y="10.433" width="0.997" height="3.292"/><rect class="cls-4" x="50.977" y="10.433" width="0.997" height="3.292"/><rect class="cls-4" x="53.749" y="10.433" width="0.997" height="3.292"/><rect class="cls-4" x="56.491" y="10.433" width="0.997" height="3.292"/><rect class="cls-4" x="59.513" y="10.433" width="0.997" height="3.292"/><rect class="cls-4" x="62.254" y="10.433" width="0.997" height="3.292"/><rect class="cls-4" x="65.027" y="10.433" width="0.997" height="3.292"/><rect class="cls-4" x="101.942" y="196.784" width="0.997" height="3.292" transform="translate(-127.329 178.315) rotate(-90)"/><rect class="cls-4" x="101.942" y="194.011" width="0.997" height="3.292" transform="translate(-124.557 175.542) rotate(-90)"/><rect class="cls-4" x="101.942" y="191.27" width="0.997" height="3.292" transform="translate(-121.815 172.8) rotate(-90)"/><rect class="cls-4" x="101.942" y="188.248" width="0.997" height="3.292" transform="translate(-118.793 169.779) rotate(-90)"/><rect class="cls-4" x="101.942" y="185.506" width="0.997" height="3.292" transform="translate(-116.052 167.037) rotate(-90)"/><rect class="cls-4" x="101.942" y="182.734" width="0.997" height="3.292" transform="translate(-113.279 164.264) rotate(-90)"/><rect class="cls-4" x="101.942" y="179.992" width="0.997" height="3.292" transform="translate(-110.537 161.523) rotate(-90)"/><rect class="cls-4" x="101.942" y="177.142" width="0.997" height="3.292" transform="translate(-107.687 158.672) rotate(-90)"/><rect class="cls-4" x="101.942" y="174.4" width="0.997" height="3.292" transform="translate(-104.945 155.931) rotate(-90)"/><rect class="cls-4" x="101.942" y="171.627" width="0.997" height="3.292" transform="translate(-102.173 153.158) rotate(-90)"/><rect class="cls-4" x="101.942" y="168.886" width="0.997" height="3.292" transform="translate(-99.431 150.416) rotate(-90)"/><rect class="cls-4" x="101.942" y="166.113" width="0.997" height="3.292" transform="translate(-96.658 147.644) rotate(-90)"/><rect class="cls-4" x="101.942" y="163.372" width="0.997" height="3.292" transform="translate(-93.917 144.902) rotate(-90)"/><rect class="cls-4" x="101.942" y="160.599" width="0.997" height="3.292" transform="translate(-91.144 142.129) rotate(-90)"/><rect class="cls-4" x="101.942" y="157.857" width="0.997" height="3.292" transform="translate(-88.403 139.388) rotate(-90)"/><rect class="cls-4" x="101.942" y="155.272" width="0.997" height="3.292" transform="translate(-85.817 136.802) rotate(-90)"/><rect class="cls-4" x="101.942" y="152.53" width="0.997" height="3.292" transform="translate(-83.075 134.061) rotate(-90)"/><rect class="cls-4" x="101.942" y="149.757" width="0.997" height="3.292" transform="translate(-80.303 131.288) rotate(-90)"/><rect class="cls-4" x="101.942" y="147.016" width="0.997" height="3.292" transform="translate(-77.561 128.546) rotate(-90)"/><rect class="cls-4" x="101.942" y="143.994" width="0.997" height="3.292" transform="translate(-74.539 125.525) rotate(-90)"/><rect class="cls-4" x="101.942" y="141.252" width="0.997" height="3.292" transform="translate(-71.798 122.783) rotate(-90)"/><rect class="cls-4" x="101.942" y="138.48" width="0.997" height="3.292" transform="translate(-69.025 120.01) rotate(-90)"/><rect class="cls-4" x="6.682" y="79.641" width="0.997" height="3.292"/><rect class="cls-4" x="9.455" y="79.641" width="0.997" height="3.292"/><rect class="cls-4" x="12.197" y="79.641" width="0.997" height="3.292"/><rect class="cls-4" x="15.218" y="79.641" width="0.997" height="3.292"/><rect class="cls-4" x="17.96" y="79.641" width="0.997" height="3.292"/><rect class="cls-4" x="20.733" y="79.641" width="0.997" height="3.292"/><rect class="cls-4" x="23.474" y="79.641" width="0.997" height="3.292"/><rect class="cls-4" x="26.325" y="79.641" width="0.997" height="3.292"/><rect class="cls-4" x="29.066" y="79.641" width="0.997" height="3.292"/><rect class="cls-4" x="31.839" y="79.641" width="0.997" height="3.292"/><rect class="cls-4" x="34.581" y="79.641" width="0.997" height="3.292"/><rect class="cls-4" x="37.353" y="79.641" width="0.997" height="3.292"/><rect class="cls-4" x="40.095" y="79.641" width="0.997" height="3.292"/><rect class="cls-4" x="42.867" y="79.641" width="0.997" height="3.292"/><rect class="cls-4" x="45.609" y="79.641" width="0.997" height="3.292"/><rect class="cls-4" x="48.195" y="79.641" width="0.997" height="3.292"/><rect class="cls-4" x="50.936" y="79.641" width="0.997" height="3.292"/><rect class="cls-4" x="53.709" y="79.641" width="0.997" height="3.292"/><rect class="cls-4" x="56.451" y="79.641" width="0.997" height="3.292"/><rect class="cls-4" x="59.472" y="79.641" width="0.997" height="3.292"/><rect class="cls-4" x="62.214" y="79.641" width="0.997" height="3.292"/><rect class="cls-4" x="64.987" y="79.641" width="0.997" height="3.292"/><rect class="cls-4" x="32.487" y="196.784" width="0.997" height="3.292" transform="translate(-196.784 108.86) rotate(-90)"/><rect class="cls-4" x="32.487" y="194.011" width="0.997" height="3.292" transform="translate(-194.011 106.087) rotate(-90)"/><rect class="cls-4" x="32.487" y="191.27" width="0.997" height="3.292" transform="translate(-191.27 103.346) rotate(-90)"/><rect class="cls-4" x="32.487" y="188.248" width="0.997" height="3.292" transform="translate(-188.248 100.324) rotate(-90)"/><rect class="cls-4" x="32.487" y="185.506" width="0.997" height="3.292" transform="translate(-185.506 97.582) rotate(-90)"/><rect class="cls-4" x="32.487" y="182.734" width="0.997" height="3.292" transform="translate(-182.734 94.81) rotate(-90)"/><rect class="cls-4" x="32.487" y="179.992" width="0.997" height="3.292" transform="translate(-179.992 92.068) rotate(-90)"/><rect class="cls-4" x="32.487" y="177.142" width="0.997" height="3.292" transform="translate(-177.142 89.217) rotate(-90)"/><rect class="cls-4" x="32.487" y="174.4" width="0.997" height="3.292" transform="translate(-174.4 86.476) rotate(-90)"/><rect class="cls-4" x="32.487" y="171.627" width="0.997" height="3.292" transform="translate(-171.627 83.703) rotate(-90)"/><rect class="cls-4" x="32.487" y="168.886" width="0.997" height="3.292" transform="translate(-168.886 80.962) rotate(-90)"/><rect class="cls-4" x="32.487" y="166.113" width="0.997" height="3.292" transform="translate(-166.113 78.189) rotate(-90)"/><rect class="cls-4" x="32.487" y="163.372" width="0.997" height="3.292" transform="translate(-163.372 75.447) rotate(-90)"/><rect class="cls-4" x="32.487" y="160.599" width="0.997" height="3.292" transform="translate(-160.599 72.675) rotate(-90)"/><rect class="cls-4" x="32.487" y="157.857" width="0.997" height="3.292" transform="translate(-157.857 69.933) rotate(-90)"/><rect class="cls-4" x="32.487" y="155.272" width="0.997" height="3.292" transform="translate(-155.272 67.347) rotate(-90)"/><rect class="cls-4" x="32.487" y="152.53" width="0.997" height="3.292" transform="translate(-152.53 64.606) rotate(-90)"/><rect class="cls-4" x="32.487" y="149.757" width="0.997" height="3.292" transform="translate(-149.757 61.833) rotate(-90)"/><rect class="cls-4" x="32.487" y="147.016" width="0.997" height="3.292" transform="translate(-147.016 59.092) rotate(-90)"/><rect class="cls-4" x="32.487" y="143.994" width="0.997" height="3.292" transform="translate(-143.994 56.07) rotate(-90)"/><rect class="cls-4" x="32.487" y="141.252" width="0.997" height="3.292" transform="translate(-141.252 53.328) rotate(-90)"/><rect class="cls-4" x="32.487" y="138.48" width="0.997" height="3.292" transform="translate(-138.48 50.556) rotate(-90)"/><circle class="cls-5" cx="13.726" cy="24.115" r="1.031"/><polyline class="cls-4" points="70.176 77.899 70.176 80.376 67.7 80.376"/><circle class="cls-5" cx="59.439" cy="69.329" r="1.031"/><circle class="cls-4" cx="4.172" cy="14.416" r="0.88"/><path class="cls-1" d="M1.746,90.867H71a.1.1,0,0,1,.1.1v19.781a0,0,0,0,1,0,0H1.646a0,0,0,0,1,0,0V90.967A.1.1,0,0,1,1.746,90.867Z"/><rect class="cls-3" x="5.765" y="96.279" width="6.333" height="6.333"/><rect class="cls-6" x="22.028" y="108.967" width="0.545" height="2.954" rx="0.05"/><rect class="cls-4" x="1.646" y="108.63" width="0.382" height="2.117"/><rect class="cls-4" x="2.273" y="108.63" width="0.382" height="2.117"/><rect class="cls-4" x="2.892" y="108.63" width="0.382" height="2.117"/><rect class="cls-4" x="3.519" y="108.63" width="0.382" height="2.117"/><rect class="cls-4" x="4.138" y="108.63" width="0.382" height="2.117"/><rect class="cls-4" x="4.765" y="108.63" width="0.382" height="2.117"/><rect class="cls-4" x="5.384" y="108.63" width="0.382" height="2.117"/><rect class="cls-4" x="6.011" y="108.63" width="0.382" height="2.117"/><rect class="cls-4" x="6.682" y="108.63" width="0.382" height="2.117"/><rect class="cls-4" x="7.309" y="108.63" width="0.382" height="2.117"/><rect class="cls-4" x="7.928" y="108.63" width="0.382" height="2.117"/><rect class="cls-4" x="8.555" y="108.63" width="0.382" height="2.117"/><rect class="cls-4" x="9.175" y="108.63" width="0.382" height="2.117"/><rect class="cls-4" x="9.802" y="108.63" width="0.382" height="2.117"/><rect class="cls-4" x="10.421" y="108.63" width="0.382" height="2.117"/><rect class="cls-4" x="11.048" y="108.63" width="0.382" height="2.117"/><rect class="cls-4" x="11.709" y="108.63" width="0.382" height="2.117"/><rect class="cls-4" x="12.336" y="108.63" width="0.382" height="2.117"/><rect class="cls-4" x="12.955" y="108.63" width="0.382" height="2.117"/><rect class="cls-4" x="13.582" y="108.63" width="0.382" height="2.117"/><rect class="cls-4" x="14.201" y="108.63" width="0.382" height="2.117"/><rect class="cls-4" x="14.828" y="108.63" width="0.382" height="2.117"/><rect class="cls-4" x="15.447" y="108.63" width="0.382" height="2.117"/><rect class="cls-4" x="16.074" y="108.63" width="0.382" height="2.117"/><rect class="cls-4" x="16.719" y="108.63" width="0.382" height="2.117"/><rect class="cls-4" x="17.346" y="108.63" width="0.382" height="2.117"/><rect class="cls-4" x="17.965" y="108.63" width="0.382" height="2.117"/><rect class="cls-4" x="18.592" y="108.63" width="0.382" height="2.117"/><rect class="cls-4" x="19.211" y="108.63" width="0.382" height="2.117"/><rect class="cls-4" x="19.838" y="108.63" width="0.382" height="2.117"/><rect class="cls-4" x="20.458" y="108.63" width="0.382" height="2.117"/><rect class="cls-4" x="21.085" y="108.63" width="0.382" height="2.117"/><rect class="cls-4" x="23.078" y="108.63" width="0.382" height="2.117"/><rect class="cls-4" x="23.705" y="108.63" width="0.382" height="2.117"/><rect class="cls-4" x="24.325" y="108.63" width="0.382" height="2.117"/><rect class="cls-4" x="24.951" y="108.63" width="0.382" height="2.117"/><rect class="cls-4" x="25.571" y="108.63" width="0.382" height="2.117"/><rect class="cls-4" x="26.198" y="108.63" width="0.382" height="2.117"/><rect class="cls-4" x="26.817" y="108.63" width="0.382" height="2.117"/><rect class="cls-4" x="27.444" y="108.63" width="0.382" height="2.117"/><rect class="cls-4" x="28.115" y="108.63" width="0.382" height="2.117"/><rect class="cls-4" x="28.742" y="108.63" width="0.382" height="2.117"/><rect class="cls-4" x="29.361" y="108.63" width="0.382" height="2.117"/><rect class="cls-4" x="29.988" y="108.63" width="0.382" height="2.117"/><rect class="cls-4" x="30.607" y="108.63" width="0.382" height="2.117"/><rect class="cls-4" x="31.234" y="108.63" width="0.382" height="2.117"/><rect class="cls-4" x="31.853" y="108.63" width="0.382" height="2.117"/><rect class="cls-4" x="32.48" y="108.63" width="0.382" height="2.117"/><rect class="cls-4" x="33.141" y="108.63" width="0.382" height="2.117"/><rect class="cls-4" x="33.768" y="108.63" width="0.382" height="2.117"/><rect class="cls-4" x="34.387" y="108.63" width="0.382" height="2.117"/><rect class="cls-4" x="35.014" y="108.63" width="0.382" height="2.117"/><rect class="cls-4" x="35.633" y="108.63" width="0.382" height="2.117"/><rect class="cls-4" x="36.26" y="108.63" width="0.382" height="2.117"/><rect class="cls-4" x="36.879" y="108.63" width="0.382" height="2.117"/><rect class="cls-4" x="37.506" y="108.63" width="0.382" height="2.117"/><rect class="cls-4" x="38.152" y="108.63" width="0.382" height="2.117"/><rect class="cls-4" x="38.779" y="108.63" width="0.382" height="2.117"/><rect class="cls-4" x="39.398" y="108.63" width="0.382" height="2.117"/><rect class="cls-4" x="40.025" y="108.63" width="0.382" height="2.117"/><rect class="cls-4" x="40.644" y="108.63" width="0.382" height="2.117"/><rect class="cls-4" x="41.271" y="108.63" width="0.382" height="2.117"/><rect class="cls-4" x="41.89" y="108.63" width="0.382" height="2.117"/><rect class="cls-4" x="42.517" y="108.63" width="0.382" height="2.117"/><rect class="cls-4" x="43.153" y="108.63" width="0.382" height="2.117"/><rect class="cls-4" x="43.78" y="108.63" width="0.382" height="2.117"/><rect class="cls-4" x="44.399" y="108.63" width="0.382" height="2.117"/><rect class="cls-4" x="45.026" y="108.63" width="0.382" height="2.117"/><rect class="cls-4" x="45.646" y="108.63" width="0.382" height="2.117"/><rect class="cls-4" x="46.273" y="108.63" width="0.382" height="2.117"/><rect class="cls-4" x="46.892" y="108.63" width="0.382" height="2.117"/><rect class="cls-4" x="47.519" y="108.63" width="0.382" height="2.117"/><rect class="cls-4" x="48.19" y="108.63" width="0.382" height="2.117"/><rect class="cls-4" x="48.817" y="108.63" width="0.382" height="2.117"/><rect class="cls-4" x="49.436" y="108.63" width="0.382" height="2.117"/><rect class="cls-4" x="50.063" y="108.63" width="0.382" height="2.117"/><rect class="cls-4" x="50.682" y="108.63" width="0.382" height="2.117"/><rect class="cls-4" x="51.309" y="108.63" width="0.382" height="2.117"/><rect class="cls-4" x="51.928" y="108.63" width="0.382" height="2.117"/><rect class="cls-4" x="52.555" y="108.63" width="0.382" height="2.117"/><rect class="cls-4" x="53.216" y="108.63" width="0.382" height="2.117"/><rect class="cls-4" x="53.843" y="108.63" width="0.382" height="2.117"/><rect class="cls-4" x="54.462" y="108.63" width="0.382" height="2.117"/><rect class="cls-4" x="55.089" y="108.63" width="0.382" height="2.117"/><rect class="cls-4" x="55.708" y="108.63" width="0.382" height="2.117"/><rect class="cls-4" x="56.335" y="108.63" width="0.382" height="2.117"/><rect class="cls-4" x="56.954" y="108.63" width="0.382" height="2.117"/><rect class="cls-4" x="57.581" y="108.63" width="0.382" height="2.117"/><rect class="cls-4" x="58.227" y="108.63" width="0.382" height="2.117"/><rect class="cls-4" x="58.853" y="108.63" width="0.382" height="2.117"/><rect class="cls-4" x="59.473" y="108.63" width="0.382" height="2.117"/><rect class="cls-4" x="60.1" y="108.63" width="0.382" height="2.117"/><rect class="cls-4" x="60.719" y="108.63" width="0.382" height="2.117"/><rect class="cls-4" x="61.346" y="108.63" width="0.382" height="2.117"/><rect class="cls-4" x="61.965" y="108.63" width="0.382" height="2.117"/><rect class="cls-4" x="62.592" y="108.63" width="0.382" height="2.117"/><rect class="cls-4" x="63.211" y="108.63" width="0.382" height="2.117"/><rect class="cls-4" x="63.838" y="108.63" width="0.382" height="2.117"/><rect class="cls-4" x="64.457" y="108.63" width="0.382" height="2.117"/><rect class="cls-4" x="65.084" y="108.63" width="0.382" height="2.117"/><rect class="cls-4" x="65.729" y="108.63" width="0.382" height="2.117"/><rect class="cls-4" x="66.356" y="108.63" width="0.382" height="2.117"/><rect class="cls-4" x="66.975" y="108.63" width="0.382" height="2.117"/><rect class="cls-4" x="67.602" y="108.63" width="0.382" height="2.117"/><rect class="cls-4" x="68.221" y="108.63" width="0.382" height="2.117"/><rect class="cls-4" x="68.848" y="108.63" width="0.382" height="2.117"/><rect class="cls-4" x="69.468" y="108.63" width="0.382" height="2.117"/><rect class="cls-4" x="70.095" y="108.63" width="0.382" height="2.117"/><rect class="cls-4" x="70.719" y="108.63" width="0.382" height="2.117"/><rect class="cls-3" x="13.61" y="96.279" width="6.333" height="6.333"/><rect class="cls-3" x="21.31" y="96.279" width="6.333" height="6.333"/><rect class="cls-3" x="29.155" y="96.279" width="6.333" height="6.333"/><rect class="cls-3" x="37.258" y="96.279" width="6.333" height="6.333"/><rect class="cls-3" x="45.103" y="96.279" width="6.333" height="6.333"/><rect class="cls-3" x="52.803" y="96.279" width="6.333" height="6.333"/><rect class="cls-3" x="60.649" y="96.279" width="6.333" height="6.333"/><rect class="cls-7" x="7.01" y="97.3" width="19.379" height="4.29" rx="0.304"/><text class="cls-8" transform="translate(7.691 99.444) scale(0.861 1)">OSSAT</text><text class="cls-9" transform="translate(7.829 100.988) scale(0.897 1)">A project by Tom Herring</text><path class="cls-10" d="M52.8,220.475H56.8v3.053H52.8Zm.847.947.01-.012c.107-.107.214-.215.324-.32a.586.586,0,0,1,.218-.141c.005,0,.009-.01.013-.015a.071.071,0,0,0-.018-.012s-.01,0-.015,0l-.219,0c-.039,0-.078,0-.117,0-.008,0-.017.01-.025.015.007.006.013.015.021.017s.031.006.046.011a.048.048,0,0,1,.03.074.548.548,0,0,1-.057.085c-.082.091-.166.18-.251.269-.029.03-.061.055-.092.082a.136.136,0,0,1-.027.014l0-.015c0-.131,0-.261,0-.391a.123.123,0,0,1,.121-.129.078.078,0,0,0,.021,0s.01-.008.01-.011a.021.021,0,0,0-.01-.014.041.041,0,0,0-.019,0H53.2a.049.049,0,0,0-.021,0,.023.023,0,0,0-.01.015s.007.009.012.011a.075.075,0,0,0,.015,0,.123.123,0,0,1,.127.134c0,.048,0,.095,0,.143q0,.279,0,.558a1.33,1.33,0,0,1-.006.141.118.118,0,0,1-.118.114.022.022,0,0,0-.014,0c-.005,0-.012.008-.012.013s.007.009.012.012a.038.038,0,0,0,.015,0c.14,0,.279,0,.419,0,.012,0,.035.014.037-.01s-.022-.018-.037-.019a.135.135,0,0,1-.136-.111.21.21,0,0,1-.005-.043c0-.1,0-.208,0-.313,0-.01,0-.028.012-.03a.046.046,0,0,1,.035.009.567.567,0,0,1,.061.059l.383.445a.041.041,0,0,0,.033.016h.285a.049.049,0,0,0,.017,0s.011-.007.011-.011a.022.022,0,0,0-.009-.015l-.015,0a.277.277,0,0,1-.192-.092c-.121-.135-.24-.271-.359-.407C53.709,221.5,53.677,221.461,53.643,221.422Zm-.412,1.665h3.121v-.066H53.231Zm1.892-1.748-.016-.017q-.171-.193-.344-.385a.041.041,0,0,0-.022-.014c-.04,0-.079,0-.118,0,0,0-.011.006-.017.009s.01.01.016.011c.033.01.044.022.044.057q0,.141,0,.282,0,.067-.006.135a.06.06,0,0,1-.048.057s-.007.007-.011.011a.029.029,0,0,0,.013,0c.051,0,.1,0,.154,0,.005,0,.009,0,.014-.008s-.008-.008-.012-.009c-.049-.013-.063-.029-.064-.081l-.006-.31v-.07l.017.017c.128.144.257.286.385.43a.044.044,0,0,0,.052.016c0-.073,0-.146,0-.219s0-.171,0-.256c0-.035.016-.048.05-.056.007,0,.013-.008.019-.012a.06.06,0,0,0-.022-.009c-.049,0-.1,0-.149,0l-.015,0-.008.008.007.009.015,0a.067.067,0,0,1,.064.076c0,.057,0,.114,0,.171S55.123,221.287,55.123,221.339Zm.62-.109h-.115c-.005,0-.01.006-.014.009s.008.011.013.012a.219.219,0,0,0,.027,0c.043.008.055.022.055.066v.065a.058.058,0,0,1-.026.05.217.217,0,0,1-.255-.02.265.265,0,0,1-.077-.186.309.309,0,0,1,.063-.213.239.239,0,0,1,.342,0c.018.02.031.044.047.065,0,0,.01.006.015.009a.031.031,0,0,0,.005-.012c0-.038,0-.076,0-.113,0,0-.005-.009-.007-.014s-.01.006-.013.01c-.015.026-.023.029-.048.013a.325.325,0,0,0-.229-.05.3.3,0,0,0-.209.1.291.291,0,0,0-.057.233.232.232,0,0,0,.134.2.369.369,0,0,0,.387-.03.032.032,0,0,0,.016-.032c0-.024,0-.049,0-.073,0-.05.009-.06.057-.07.006,0,.011-.008.017-.012a.048.048,0,0,0-.018-.008Zm.61,1.7H53.231v.027h3.122Zm-1.5-.425v.176c0,.036-.012.048-.043.054a.071.071,0,0,0-.018.012.086.086,0,0,0,.021.007c.076,0,.153,0,.23,0a.281.281,0,0,0,.182-.064.242.242,0,0,0,.077-.232.189.189,0,0,0-.181-.189c-.1-.011-.208-.006-.312-.008,0,0-.009,0-.013.008s.008.009.013.01c.034.009.044.02.044.054Zm1.184.246-.007-.01-.008,0a.056.056,0,0,1-.053-.066c0-.066,0-.131,0-.2,0-.05,0-.1,0-.154l.024.029.332.39a.03.03,0,0,0,.039.011c0-.058,0-.115,0-.173q0-.122,0-.243c0-.04.013-.051.053-.057a.055.055,0,0,0,.015-.008l0-.007h-.162l-.01.007a.091.091,0,0,0,.014.007c.046.008.059.023.059.069l0,.267a.141.141,0,0,1,0,.018l-.015-.017-.285-.335a.039.039,0,0,0-.024-.015c-.036,0-.072,0-.108,0,0,0-.009.005-.014.007s.008.008.012.009c.03.008.039.017.039.048,0,.075,0,.149,0,.224,0,.042,0,.085,0,.128s-.011.049-.046.06l-.011.008v0Zm-1.735-.428.016.018c.113.133.227.266.34.4a.028.028,0,0,0,.037.01v-.405c0-.047.012-.06.057-.069a.05.05,0,0,0,.016-.01.473.473,0,0,0-.178.007l.014,0c.046.007.06.022.06.069,0,.071,0,.143,0,.215v.073l-.015-.016-.291-.343s-.01-.011-.016-.011H54.23l-.011.008s.006.007.01.008c.035.011.04.016.041.053s0,.076,0,.115c0,.075,0,.15,0,.226,0,.04-.009.051-.047.066l-.009.008c.005,0,.009.007.013.007h.131a.051.051,0,0,0,.015-.006l-.013-.009c-.047-.014-.055-.025-.056-.075s0-.084,0-.126C54.3,222.464,54.3,222.393,54.3,222.319Zm2.041-1.409c-.035.032-.035.032-.075.021a.23.23,0,0,0-.153.008.119.119,0,0,0-.076.088.14.14,0,0,0,.066.155,1.045,1.045,0,0,0,.1.044.872.872,0,0,1,.087.042.1.1,0,0,1,.038.106.1.1,0,0,1-.067.085.168.168,0,0,1-.2-.072.467.467,0,0,1-.023-.051c0-.005-.008-.009-.012-.013s-.009.011-.009.016c0,.042,0,.084,0,.126,0,0,.005.01.007.015l.012-.007a.086.086,0,0,1,.031-.012.089.089,0,0,1,.037.012.284.284,0,0,0,.182.013.146.146,0,0,0,.118-.108.157.157,0,0,0-.04-.164.282.282,0,0,0-.106-.058.5.5,0,0,1-.093-.038.092.092,0,0,1,.062-.172.142.142,0,0,1,.112.075.087.087,0,0,0,.017.016l.006,0Zm-.483,1.592a.238.238,0,0,0-.244-.246.242.242,0,0,0-.246.245.245.245,0,1,0,.49,0Zm-1.667,0a.24.24,0,0,0-.239-.248.243.243,0,0,0-.252.24.239.239,0,0,0,.239.258A.237.237,0,0,0,54.19,222.5Zm1.614-.468c-.029.014-.059.025-.085.041a.071.071,0,0,0,0,.133.237.237,0,0,0,.091.025.218.218,0,0,0,.151-.032.069.069,0,0,0,.018-.1.148.148,0,0,0-.032-.034c-.025-.018-.052-.032-.077-.049a.227.227,0,0,1-.044-.037.03.03,0,0,1,.021-.051.153.153,0,0,1,.037,0,.148.148,0,0,0,.164-.168c0-.027,0-.034.032-.032a.187.187,0,0,1,.022.007c.013,0,.024,0,.027-.013a.018.018,0,0,0-.018-.024.141.141,0,0,0-.05.012c-.016.007-.028.012-.044,0a.075.075,0,0,0-.031-.009c-.087-.015-.211.1-.15.2a.276.276,0,0,0-.064.058C55.756,221.99,55.781,222.015,55.8,222.036Zm-1.505-.559v.007a.052.052,0,0,0,.016.006q.111,0,.222,0a.037.037,0,0,0,.014-.007s-.009-.009-.014-.009c-.043,0-.067-.026-.067-.079,0-.125,0-.251,0-.377,0-.05.015-.067.064-.076.007,0,.012-.007.018-.011a.05.05,0,0,0-.02-.008c-.072,0-.144,0-.217,0-.007,0-.014.006-.021.009a.072.072,0,0,0,.019.011c.051.01.068.03.068.083v.36c0,.011,0,.022,0,.033a.056.056,0,0,1-.057.054Zm-1.085.786v.007a.166.166,0,0,0,.021.006.054.054,0,0,1,.054.054v.321a.2.2,0,0,1,0,.035.052.052,0,0,1-.042.044l-.017,0-.008.008.008.009a.075.075,0,0,0,.015,0h.416c.008-.046.017-.091.025-.135l0-.013-.011.009-.005.012a.15.15,0,0,1-.092.092.349.349,0,0,1-.167.007c-.031-.006-.039-.019-.039-.05v-.339a.049.049,0,0,1,.047-.056c.007,0,.012-.007.018-.01a.045.045,0,0,0-.018-.007h-.178Zm1.169-.33h0v-.02l0-.019a.44.44,0,0,1,.119-.225.23.23,0,0,1,.107-.071.106.106,0,0,1,.142.081c0,.015,0,.029,0,.043a.084.084,0,0,0,.008.02s.011-.009.013-.015c.011-.034.022-.068.032-.1a.054.054,0,0,0,0-.018.044.044,0,0,0-.017.007c-.013.012-.022.009-.035,0a.169.169,0,0,0-.049-.031.2.2,0,0,0-.13,0,.38.38,0,0,0-.263.339.143.143,0,0,0,.132.155.309.309,0,0,0,.158-.028c.029-.012.033-.008.037.022a.056.056,0,0,0,.009.017s.01-.009.012-.015c.016-.042.031-.084.045-.127a.076.076,0,0,0,0-.021c-.006,0-.015.006-.018.012a.276.276,0,0,1-.186.116.089.089,0,0,1-.12-.076C54.384,221.96,54.384,221.946,54.383,221.933Zm.41.022a.176.176,0,0,0,0,.023.091.091,0,0,0,.125.088.177.177,0,0,0,.049-.026.3.3,0,0,0,.105-.163.21.21,0,0,0,0-.119.076.076,0,0,0-.1-.06.205.205,0,0,0-.079.037A.28.28,0,0,0,54.793,221.955Zm.891.026-.006,0a.125.125,0,0,1-.017.016.354.354,0,0,1-.069.042.053.053,0,0,1-.076-.032.121.121,0,0,1,.019-.1c.008-.012.031-.014.048-.02.047-.016.095-.03.141-.049a.08.08,0,0,0,.049-.062.048.048,0,0,0-.047-.063.146.146,0,0,0-.059.008.319.319,0,0,0-.161.133.248.248,0,0,0-.048.139.077.077,0,0,0,.092.083.192.192,0,0,0,.13-.078Zm.626,0-.005,0-.013.012a.373.373,0,0,1-.073.046.055.055,0,0,1-.079-.059.36.36,0,0,1,.015-.063.037.037,0,0,1,.032-.027,1.416,1.416,0,0,0,.141-.041.176.176,0,0,0,.058-.043.062.062,0,0,0,.009-.071c-.012-.023-.036-.025-.059-.024l-.027,0a.334.334,0,0,0-.225.277.076.076,0,0,0,.086.083.184.184,0,0,0,.135-.076Zm-.894-.4,0,.009.046.011-.012.028-.1.219c-.028.062-.056.123-.083.185,0,.011,0,.031,0,.037a.043.043,0,0,0,.037,0,.213.213,0,0,0,.084-.079l0-.016-.069.063-.006-.006.1-.226c.033-.076.07-.151.1-.234Zm-.131.019-.01.027-.1.224q-.044.094-.084.189a.038.038,0,0,0,.005.031s.02,0,.029,0a.192.192,0,0,0,.094-.086l0-.009-.065.059-.007,0c.034-.075.068-.15.1-.226s.071-.15.1-.229c-.035-.007-.1,0-.1.015Zm.6-.536a.067.067,0,0,0,.077-.032.078.078,0,0,0,0-.085.052.052,0,0,0-.017-.016.056.056,0,0,0-.061.007.049.049,0,0,0-.009.054.045.045,0,0,0,.052.022h.009C55.939,221.042,55.908,221.045,55.888,221.06Z" transform="translate(-31.34 -122.556)"/><path class="cls-11" d="M53.643,221.422c.034.039.066.079.1.117.119.136.238.272.359.407a.277.277,0,0,0,.192.092l.015,0a.022.022,0,0,1,.009.015s-.007.009-.011.011a.049.049,0,0,1-.017,0h-.285a.041.041,0,0,1-.033-.016l-.383-.445a.567.567,0,0,0-.061-.059.046.046,0,0,0-.035-.009c-.007,0-.012.02-.012.03,0,.1,0,.209,0,.313a.21.21,0,0,0,.005.043.135.135,0,0,0,.136.111c.015,0,.038,0,.037.019s-.025.01-.037.01c-.14,0-.279,0-.419,0a.038.038,0,0,1-.015,0c-.005,0-.012-.008-.012-.012s.007-.01.012-.013a.022.022,0,0,1,.014,0,.118.118,0,0,0,.118-.114,1.33,1.33,0,0,0,.006-.141q0-.279,0-.558c0-.048,0-.095,0-.143a.123.123,0,0,0-.127-.134.075.075,0,0,1-.015,0s-.012-.007-.012-.011a.023.023,0,0,1,.01-.015.049.049,0,0,1,.021,0h.406a.041.041,0,0,1,.019,0,.021.021,0,0,1,.01.014s-.006.009-.01.011a.078.078,0,0,1-.021,0,.123.123,0,0,0-.121.129c0,.13,0,.26,0,.391l0,.015a.136.136,0,0,0,.027-.014c.031-.027.063-.052.092-.082.085-.089.169-.178.251-.269a.548.548,0,0,0,.057-.085.048.048,0,0,0-.03-.074c-.015,0-.031,0-.046-.011s-.014-.011-.021-.017c.008,0,.017-.015.025-.015.039,0,.078,0,.117,0l.219,0c.005,0,.011,0,.015,0a.071.071,0,0,1,.018.012s-.008.013-.013.015a.586.586,0,0,0-.218.141c-.11.1-.217.213-.324.32Z" transform="translate(-31.34 -122.556)"/><path class="cls-12" d="M53.231,223.087v-.066h3.121v.066Z" transform="translate(-31.34 -122.556)"/><path class="cls-13" d="M55.123,221.339c0-.052,0-.1,0-.147s0-.114,0-.171a.067.067,0,0,0-.064-.076l-.015,0-.007-.009.008-.008.015,0c.05,0,.1,0,.149,0a.06.06,0,0,1,.022.009c-.006,0-.012.011-.019.012-.034.008-.049.021-.05.056,0,.085,0,.17,0,.256s0,.146,0,.219a.044.044,0,0,1-.052-.016c-.128-.144-.257-.286-.385-.43l-.017-.017v.07l.006.31c0,.052.015.068.064.081,0,0,.008.006.012.009s-.009.008-.014.008c-.052,0-.1,0-.154,0a.029.029,0,0,1-.013,0s.007-.01.011-.011a.06.06,0,0,0,.048-.057q.006-.067.006-.135,0-.141,0-.282c0-.035-.011-.047-.044-.057-.006,0-.011-.007-.016-.011s.012-.009.017-.009c.039,0,.078,0,.118,0a.041.041,0,0,1,.022.014q.173.192.344.385Z" transform="translate(-31.34 -122.556)"/><path class="cls-13" d="M55.743,221.23h.11a.048.048,0,0,1,.018.008c-.006,0-.011.011-.017.012-.048.01-.057.02-.057.07,0,.024,0,.049,0,.073a.032.032,0,0,1-.016.032.369.369,0,0,1-.387.03.232.232,0,0,1-.134-.2.291.291,0,0,1,.057-.233.3.3,0,0,1,.209-.1.325.325,0,0,1,.229.05c.025.016.033.013.048-.013,0,0,.009-.006.013-.01s.007.009.007.014c0,.037,0,.075,0,.113a.031.031,0,0,1-.005.012s-.012,0-.015-.009c-.016-.021-.029-.045-.047-.065a.239.239,0,0,0-.342,0,.309.309,0,0,0-.063.213.265.265,0,0,0,.077.186.217.217,0,0,0,.255.02.058.058,0,0,0,.026-.05v-.065c0-.044-.012-.058-.055-.066a.219.219,0,0,1-.027,0c-.005,0-.009-.008-.013-.012s.009-.009.014-.009Z" transform="translate(-31.34 -122.556)"/><path class="cls-6" d="M56.353,222.926v.027H53.231v-.027Z" transform="translate(-31.34 -122.556)"/><path class="cls-13" d="M54.85,222.5v-.172c0-.034-.01-.045-.044-.054,0,0-.009-.006-.013-.01s.009-.008.013-.008c.1,0,.209,0,.312.008a.189.189,0,0,1,.181.189.242.242,0,0,1-.077.232.281.281,0,0,1-.182.064c-.077,0-.154,0-.23,0a.086.086,0,0,1-.021-.007.071.071,0,0,1,.018-.012c.031-.006.042-.018.043-.054V222.5Zm.074-.006v.143c0,.077.014.091.091.089a.183.183,0,0,0,.187-.121.307.307,0,0,0,.006-.194.167.167,0,0,0-.135-.125.451.451,0,0,0-.1-.006c-.035,0-.045.013-.045.049Z" transform="translate(-31.34 -122.556)"/><path class="cls-14" d="M56.034,222.747h-.159v0l.011-.008c.035-.011.045-.023.046-.06s0-.086,0-.128c0-.075,0-.149,0-.224,0-.031-.009-.04-.039-.048,0,0-.008-.006-.012-.009s.009-.007.014-.007c.036,0,.072,0,.108,0a.039.039,0,0,1,.024.015l.285.335.015.017a.141.141,0,0,0,0-.018l0-.267c0-.046-.013-.061-.059-.069a.091.091,0,0,1-.014-.007l.01-.007h.162l0,.007a.055.055,0,0,1-.015.008c-.04.006-.052.017-.053.057q0,.122,0,.243c0,.058,0,.115,0,.173a.03.03,0,0,1-.039-.011l-.332-.39-.024-.029c0,.055,0,.1,0,.154,0,.066,0,.131,0,.2a.056.056,0,0,0,.053.066l.008,0Z" transform="translate(-31.34 -122.556)"/><path class="cls-15" d="M54.3,222.319c0,.074,0,.145,0,.215,0,.042,0,.084,0,.126s.009.061.056.075l.013.009a.051.051,0,0,1-.015.006h-.131s-.008,0-.013-.007l.009-.008c.038-.015.047-.026.047-.066,0-.076,0-.151,0-.226,0-.039,0-.077,0-.115s-.006-.042-.041-.053c0,0-.007-.006-.01-.008l.011-.008h.115c.006,0,.012.006.016.011l.291.343.015.016v-.073c0-.072,0-.144,0-.215,0-.047-.014-.062-.06-.069l-.014,0a.473.473,0,0,1,.178-.007.05.05,0,0,1-.016.01c-.045.009-.056.022-.057.069v.405a.028.028,0,0,1-.037-.01c-.113-.134-.227-.267-.34-.4Z" transform="translate(-31.34 -122.556)"/><path class="cls-13" d="M56.34,220.91l.018.123-.006,0a.087.087,0,0,1-.017-.016.142.142,0,0,0-.112-.075.092.092,0,0,0-.062.172.5.5,0,0,0,.093.038.282.282,0,0,1,.106.058.157.157,0,0,1,.04.164.146.146,0,0,1-.118.108.284.284,0,0,1-.182-.013.089.089,0,0,0-.037-.012.086.086,0,0,0-.031.012l-.012.007s-.007-.01-.007-.015c0-.042,0-.084,0-.126,0,0,.006-.011.009-.016s.01.008.012.013a.467.467,0,0,0,.023.051.168.168,0,0,0,.2.072.1.1,0,0,0,.067-.085.1.1,0,0,0-.038-.106.872.872,0,0,0-.087-.042,1.045,1.045,0,0,1-.1-.044.14.14,0,0,1-.066-.155.119.119,0,0,1,.076-.088.23.23,0,0,1,.153-.008C56.305,220.942,56.305,220.942,56.34,220.91Z" transform="translate(-31.34 -122.556)"/><path class="cls-15" d="M55.857,222.5a.245.245,0,1,1-.49,0,.242.242,0,0,1,.246-.245A.238.238,0,0,1,55.857,222.5Zm-.073.006a.31.31,0,0,0-.05-.163.146.146,0,0,0-.256.018.313.313,0,0,0,0,.284.151.151,0,0,0,.281-.023C55.772,222.587,55.776,222.547,55.784,222.508Z" transform="translate(-31.34 -122.556)"/><path class="cls-15" d="M54.19,222.5a.237.237,0,0,1-.252.25.239.239,0,0,1-.239-.258.243.243,0,0,1,.252-.24A.24.24,0,0,1,54.19,222.5Zm-.074,0a.345.345,0,0,0-.04-.145.149.149,0,0,0-.135-.082.142.142,0,0,0-.135.09.316.316,0,0,0,.006.278.151.151,0,0,0,.279-.019A1.2,1.2,0,0,0,54.116,222.506Z" transform="translate(-31.34 -122.556)"/><path class="cls-14" d="M55.8,222.036c-.023-.021-.048-.046-.028-.077a.276.276,0,0,1,.064-.058c-.061-.1.063-.212.15-.2a.075.075,0,0,1,.031.009c.016.011.028.006.044,0a.141.141,0,0,1,.05-.012.018.018,0,0,1,.018.024c0,.015-.014.017-.027.013a.187.187,0,0,0-.022-.007c-.028,0-.035.005-.032.032a.148.148,0,0,1-.164.168.153.153,0,0,0-.037,0,.03.03,0,0,0-.021.051.227.227,0,0,0,.044.037c.025.017.052.031.077.049a.148.148,0,0,1,.032.034.069.069,0,0,1-.018.1.218.218,0,0,1-.151.032.237.237,0,0,1-.091-.025.071.071,0,0,1,0-.133C55.745,222.061,55.775,222.05,55.8,222.036Zm.042.18a.376.376,0,0,0,.066-.017.04.04,0,0,0,.016-.072.267.267,0,0,0-.044-.038c-.052-.04-.071-.04-.123,0a.058.058,0,0,0,0,.1A.144.144,0,0,0,55.846,222.216Zm.168-.452c0-.037-.013-.05-.04-.043a.084.084,0,0,0-.036.019.183.183,0,0,0-.063.089.133.133,0,0,0-.005.053c0,.021.016.029.037.025a.075.075,0,0,0,.028-.011A.2.2,0,0,0,56.014,221.764Z" transform="translate(-31.34 -122.556)"/><path class="cls-11" d="M54.3,221.477l.022,0a.056.056,0,0,0,.057-.054c0-.011,0-.022,0-.033v-.36c0-.053-.017-.073-.068-.083a.072.072,0,0,1-.019-.011c.007,0,.014-.009.021-.009.073,0,.145,0,.217,0a.05.05,0,0,1,.02.008c-.006,0-.011.01-.018.011-.049.009-.064.026-.064.076,0,.126,0,.252,0,.377,0,.053.024.077.067.079,0,0,.009.006.014.009a.037.037,0,0,1-.014.007q-.111,0-.222,0a.052.052,0,0,1-.016-.006Z" transform="translate(-31.34 -122.556)"/><path class="cls-13" d="M53.214,222.263l.02,0h.178a.045.045,0,0,1,.018.007c-.006,0-.011.009-.018.01a.049.049,0,0,0-.047.056v.339c0,.031.008.044.039.05a.349.349,0,0,0,.167-.007.15.15,0,0,0,.092-.092l.005-.012.011-.009,0,.013c-.008.044-.017.089-.025.135h-.416a.075.075,0,0,1-.015,0l-.008-.009.008-.008.017,0a.052.052,0,0,0,.042-.044.2.2,0,0,0,0-.035v-.321a.054.054,0,0,0-.054-.054.166.166,0,0,1-.021-.006Z" transform="translate(-31.34 -122.556)"/><path class="cls-14" d="M54.383,221.933c0,.013,0,.027,0,.041a.089.089,0,0,0,.12.076.276.276,0,0,0,.186-.116c0-.006.012-.008.018-.012a.076.076,0,0,1,0,.021c-.014.043-.029.085-.045.127,0,.006-.008.01-.012.015a.056.056,0,0,1-.009-.017c0-.03-.008-.034-.037-.022a.309.309,0,0,1-.158.028.143.143,0,0,1-.132-.155.38.38,0,0,1,.263-.339.2.2,0,0,1,.13,0,.169.169,0,0,1,.049.031c.013.011.022.014.035,0a.044.044,0,0,1,.017-.007.054.054,0,0,1,0,.018c-.01.035-.021.069-.032.1,0,.006-.009.01-.013.015a.084.084,0,0,1-.008-.02c0-.014,0-.028,0-.043a.106.106,0,0,0-.142-.081.23.23,0,0,0-.107.071.44.44,0,0,0-.119.225l0,.019v.02Z" transform="translate(-31.34 -122.556)"/><path class="cls-14" d="M54.793,221.955a.28.28,0,0,1,.1-.22.205.205,0,0,1,.079-.037.076.076,0,0,1,.1.06.21.21,0,0,1,0,.119.3.3,0,0,1-.105.163.177.177,0,0,1-.049.026.091.091,0,0,1-.125-.088A.176.176,0,0,1,54.793,221.955Zm.257-.178c0-.022,0-.043-.021-.054a.05.05,0,0,0-.057.007.23.23,0,0,0-.041.035.4.4,0,0,0-.085.149.34.34,0,0,0-.017.083c0,.043.029.062.068.043a.085.085,0,0,0,.025-.017.6.6,0,0,0,.061-.072A.362.362,0,0,0,55.05,221.777Z" transform="translate(-31.34 -122.556)"/><path class="cls-16" d="M55.684,221.981l0,.012a.192.192,0,0,1-.13.078.077.077,0,0,1-.092-.083.248.248,0,0,1,.048-.139.319.319,0,0,1,.161-.133.146.146,0,0,1,.059-.008.048.048,0,0,1,.047.063.08.08,0,0,1-.049.062c-.046.019-.094.033-.141.049-.017.006-.04.008-.048.02a.121.121,0,0,0-.019.1.053.053,0,0,0,.076.032.354.354,0,0,0,.069-.042.125.125,0,0,0,.017-.016Zm-.13-.121,0,.007c.037-.012.074-.021.11-.035a.111.111,0,0,0,.043-.028.054.054,0,0,0,.013-.065.047.047,0,0,0-.06,0A.325.325,0,0,0,55.554,221.86Z" transform="translate(-31.34 -122.556)"/><path class="cls-16" d="M56.31,221.98l-.005.015a.184.184,0,0,1-.135.076.076.076,0,0,1-.086-.083.334.334,0,0,1,.225-.277l.027,0c.023,0,.047,0,.059.024a.062.062,0,0,1-.009.071.176.176,0,0,1-.058.043,1.416,1.416,0,0,1-.141.041.037.037,0,0,0-.032.027.36.36,0,0,0-.015.063.055.055,0,0,0,.079.059.373.373,0,0,0,.073-.046l.013-.012Zm-.131-.116a.355.355,0,0,0,.142-.046.069.069,0,0,0,.034-.053c0-.023-.008-.038-.031-.035a.114.114,0,0,0-.051.02A.331.331,0,0,0,56.179,221.864Z" transform="translate(-31.34 -122.556)"/><path class="cls-14" d="M55.416,221.577l.1-.009c-.032.083-.069.158-.1.234l-.1.226.006.006.069-.063,0,.016a.213.213,0,0,1-.084.079.043.043,0,0,1-.037,0c-.007-.006-.007-.026,0-.037.027-.062.055-.123.083-.185l.1-.219.012-.028-.046-.011Z" transform="translate(-31.34 -122.556)"/><path class="cls-14" d="M55.285,221.6l-.044-.008c.007-.013.068-.022.1-.015-.03.079-.067.153-.1.229s-.067.151-.1.226l.007,0,.065-.059,0,.009a.192.192,0,0,1-.094.086c-.009,0-.025,0-.029,0a.038.038,0,0,1-.005-.031q.041-.094.084-.189l.1-.224Z" transform="translate(-31.34 -122.556)"/><path class="cls-17" d="M55.888,221.06c.02-.015.051-.018.055-.05h-.009a.045.045,0,0,1-.052-.022.049.049,0,0,1,.009-.054.056.056,0,0,1,.061-.007.052.052,0,0,1,.017.016.078.078,0,0,1,0,.085A.067.067,0,0,1,55.888,221.06Z" transform="translate(-31.34 -122.556)"/><path class="cls-18" d="M54.924,222.5v-.165c0-.036.01-.049.045-.049a.451.451,0,0,1,.1.006.167.167,0,0,1,.135.125.307.307,0,0,1-.006.194.183.183,0,0,1-.187.121c-.077,0-.091-.012-.091-.089Z" transform="translate(-31.34 -122.556)"/><path class="cls-19" d="M55.784,222.508c-.008.039-.012.079-.023.116a.151.151,0,0,1-.281.023.313.313,0,0,1,0-.284.146.146,0,0,1,.256-.018A.31.31,0,0,1,55.784,222.508Z" transform="translate(-31.34 -122.556)"/><path class="cls-20" d="M54.116,222.506a1.2,1.2,0,0,1-.025.122.151.151,0,0,1-.279.019.316.316,0,0,1-.006-.278.142.142,0,0,1,.135-.09.149.149,0,0,1,.135.082A.345.345,0,0,1,54.116,222.506Z" transform="translate(-31.34 -122.556)"/><path class="cls-21" d="M55.846,222.216a.144.144,0,0,1-.088-.03.058.058,0,0,1,0-.1c.052-.04.071-.04.123,0a.267.267,0,0,1,.044.038.04.04,0,0,1-.016.072A.376.376,0,0,1,55.846,222.216Z" transform="translate(-31.34 -122.556)"/><path class="cls-21" d="M56.014,221.764a.2.2,0,0,1-.079.132.075.075,0,0,1-.028.011c-.021,0-.035,0-.037-.025a.133.133,0,0,1,.005-.053.183.183,0,0,1,.063-.089.084.084,0,0,1,.036-.019C56,221.714,56.015,221.727,56.014,221.764Z" transform="translate(-31.34 -122.556)"/><path class="cls-21" d="M55.05,221.777a.362.362,0,0,1-.067.174.6.6,0,0,1-.061.072.085.085,0,0,1-.025.017c-.039.019-.071,0-.068-.043a.34.34,0,0,1,.017-.083.4.4,0,0,1,.085-.149.23.23,0,0,1,.041-.035.05.05,0,0,1,.057-.007C55.048,221.734,55.049,221.755,55.05,221.777Z" transform="translate(-31.34 -122.556)"/><path class="cls-22" d="M55.554,221.86a.325.325,0,0,1,.109-.121.047.047,0,0,1,.06,0,.054.054,0,0,1-.013.065.111.111,0,0,1-.043.028c-.036.014-.073.023-.11.035Z" transform="translate(-31.34 -122.556)"/><path class="cls-23" d="M56.179,221.864a.331.331,0,0,1,.094-.114.114.114,0,0,1,.051-.02c.023,0,.034.012.031.035a.069.069,0,0,1-.034.053A.355.355,0,0,1,56.179,221.864Z" transform="translate(-31.34 -122.556)"/><rect class="cls-3" x="1.646" y="108.331" width="69.455" height="0.299"/><text class="cls-24" transform="translate(84.016 108.331) scale(1.191 1)">Operating System Simulation &amp; Assessment Tool</text><path class="cls-5" d="M53.1,164.3c0-.459.219-.73.531-.73s.53.271.53.73-.219.743-.53.743S53.1,164.765,53.1,164.3Zm.878,0c0-.357-.139-.57-.347-.57s-.348.213-.348.57.139.583.348.583S53.978,164.664,53.978,164.3Z" transform="translate(-31.34 -122.556)"/><path class="cls-5" d="M54.4,164.833l.1-.126a.572.572,0,0,0,.405.175c.189,0,.3-.093.3-.223,0-.152-.108-.195-.247-.256l-.2-.091a.4.4,0,0,1-.3-.366.407.407,0,0,1,.453-.377.594.594,0,0,1,.425.176l-.092.117a.477.477,0,0,0-.339-.133c-.161,0-.268.079-.268.207s.128.186.247.233l.193.089c.171.07.306.169.306.379,0,.226-.186.405-.489.405A.694.694,0,0,1,54.4,164.833Z" transform="translate(-31.34 -122.556)"/><path class="cls-5" d="M55.658,164.833l.106-.126a.572.572,0,0,0,.4.175c.189,0,.3-.093.3-.223,0-.152-.108-.195-.247-.256l-.2-.091a.4.4,0,0,1-.3-.366.406.406,0,0,1,.452-.377.6.6,0,0,1,.426.176l-.093.117a.477.477,0,0,0-.339-.133c-.16,0-.268.079-.268.207s.129.186.247.233l.194.089a.4.4,0,0,1,.3.379c0,.226-.186.405-.489.405A.694.694,0,0,1,55.658,164.833Z" transform="translate(-31.34 -122.556)"/><path class="cls-5" d="M57.307,163.6h.2l.465,1.422h-.189l-.239-.793c-.048-.159-.094-.315-.136-.479H57.4c-.044.164-.088.32-.136.479l-.243.793h-.181Zm-.22.843h.634v.147h-.634Z" transform="translate(-31.34 -122.556)"/><path class="cls-5" d="M58.578,163.749h-.457V163.6h1.091v.154h-.457v1.268h-.177Z" transform="translate(-31.34 -122.556)"/><path class="cls-5" d="M60.658,163.963h.179l.236.6q.06.159.114.312H61.2c.036-.1.07-.206.112-.312l.235-.6h.169l-.425,1.054h-.2Z" transform="translate(-31.34 -122.556)"/><path class="cls-5" d="M62.016,164.867H62.4v-1.014h-.3v-.117a.944.944,0,0,0,.345-.1h.131v1.233h.35v.15h-.912Z" transform="translate(-31.34 -122.556)"/><path class="cls-5" d="M53.15,166.2h.215l.194.607.067.23h.009l.065-.23.2-.607h.215v1.422h-.169v-.711c0-.139.021-.382.03-.5h-.007l-.077.278-.2.559h-.126l-.193-.559-.08-.278h-.005c.013.121.03.364.03.5v.711H53.15Z" transform="translate(-31.34 -122.556)"/><path class="cls-5" d="M54.426,167.35c0-.237.215-.351.743-.395a.245.245,0,0,0-.271-.264.705.705,0,0,0-.358.125l-.069-.121a.882.882,0,0,1,.456-.152.386.386,0,0,1,.417.434v.646H55.2l-.014-.144h-.007a.679.679,0,0,1-.4.169A.313.313,0,0,1,54.426,167.35Zm.743,0v-.273c-.438.035-.57.124-.57.262,0,.12.105.167.223.167A.545.545,0,0,0,55.169,167.347Z" transform="translate(-31.34 -122.556)"/><path class="cls-5" d="M55.644,167.1a.5.5,0,0,1,.462-.555.431.431,0,0,1,.308.135h0l-.008-.193v-.405h.174v1.543h-.143l-.014-.139H56.42a.484.484,0,0,1-.335.164C55.82,167.648,55.644,167.449,55.644,167.1Zm.766.243v-.525a.378.378,0,0,0-.267-.121c-.177,0-.321.16-.321.4s.114.4.3.4A.383.383,0,0,0,56.41,167.341Z" transform="translate(-31.34 -122.556)"/><path class="cls-5" d="M56.919,167.094a.522.522,0,0,1,.522-.551.448.448,0,0,1,.468.5.768.768,0,0,1-.009.108h-.865v-.139H57.8l-.044.05c0-.249-.12-.372-.308-.372a.366.366,0,0,0-.353.409.376.376,0,0,0,.4.411.546.546,0,0,0,.312-.1l.063.117a.691.691,0,0,1-.4.125A.525.525,0,0,1,56.919,167.094Z" transform="translate(-31.34 -122.556)"/><path class="cls-5" d="M59.957,166.715h-.474v-.146h.649v1.054h-.175Zm-.069-.5a.139.139,0,1,1,.139.139A.133.133,0,0,1,59.888,166.21Z" transform="translate(-31.34 -122.556)"/><path class="cls-5" d="M60.749,166.569h.143l.014.178h.009a.524.524,0,0,1,.385-.2c.242,0,.354.148.354.425v.655h-.175v-.631c0-.2-.067-.292-.233-.292-.122,0-.205.062-.323.188v.735h-.174Z" transform="translate(-31.34 -122.556)"/><path class="cls-5" d="M63.237,167.085V166.2h.179v.888c0,.293.125.4.289.4s.292-.106.292-.4V166.2h.171v.884c0,.408-.194.563-.463.563S63.237,167.493,63.237,167.085Z" transform="translate(-31.34 -122.556)"/><path class="cls-5" d="M64.534,166.2h.179v.711h.006l.579-.711h.2l-.787.969v.453h-.179Zm.391.629.108-.143.518.936h-.2Z" transform="translate(-31.34 -122.556)"/><path class="cls-5" d="M53.182,168.808h.341c.415,0,.641.253.641.7s-.226.717-.632.717h-.35Zm.329,1.272c.313,0,.469-.208.469-.568s-.156-.555-.469-.555h-.152v1.123Z" transform="translate(-31.34 -122.556)"/><path class="cls-5" d="M54.4,169.7a.522.522,0,0,1,.522-.55.447.447,0,0,1,.468.494.642.642,0,0,1-.009.108h-.865v-.138h.762l-.044.05c0-.25-.12-.373-.308-.373a.366.366,0,0,0-.353.409.377.377,0,0,0,.4.412.541.541,0,0,0,.311-.1l.064.117a.684.684,0,0,1-.4.126A.526.526,0,0,1,54.4,169.7Z" transform="translate(-31.34 -122.556)"/><path class="cls-5" d="M55.713,169.176h.143l.015.135h.006a.533.533,0,0,1,.354-.161c.276,0,.423.21.423.538a.5.5,0,0,1-.465.567.483.483,0,0,1-.306-.136h0l.009.2v.355h-.175Zm.762.512c0-.232-.084-.386-.288-.386a.426.426,0,0,0-.3.156v.524a.42.42,0,0,0,.271.122C56.34,170.1,56.475,169.947,56.475,169.688Z" transform="translate(-31.34 -122.556)"/><path class="cls-5" d="M56.944,169.956c0-.236.215-.351.744-.394a.247.247,0,0,0-.272-.265.7.7,0,0,0-.358.126l-.069-.121a.873.873,0,0,1,.456-.152.386.386,0,0,1,.417.433v.646h-.145l-.015-.143H57.7a.679.679,0,0,1-.4.169A.313.313,0,0,1,56.944,169.956Zm.744,0v-.273c-.438.034-.571.123-.571.262,0,.119.105.167.223.167A.549.549,0,0,0,57.688,169.954Z" transform="translate(-31.34 -122.556)"/><path class="cls-5" d="M58.34,169.176h.145l.017.249h0a.539.539,0,0,1,.457-.275.431.431,0,0,1,.2.043l-.041.154a.493.493,0,0,0-.189-.035.48.48,0,0,0-.421.3v.615H58.34Z" transform="translate(-31.34 -122.556)"/><path class="cls-5" d="M59.728,169.819v-.5h-.291v-.134l.3-.011.023-.338H59.9v.338h.5v.145h-.5v.5c0,.188.061.285.26.285a.663.663,0,0,0,.244-.047l.038.132a.867.867,0,0,1-.32.063C59.825,170.255,59.728,170.08,59.728,169.819Z" transform="translate(-31.34 -122.556)"/><path class="cls-5" d="M60.675,169.176h.139l.015.138h0a.254.254,0,0,1,.233-.164c.1,0,.165.06.194.182.059-.113.122-.182.24-.182.144,0,.228.115.228.325v.754h-.173v-.741c0-.121-.034-.184-.11-.184s-.109.054-.164.162v.763h-.16v-.741c0-.121-.029-.184-.105-.184s-.118.054-.168.162v.763h-.173Z" transform="translate(-31.34 -122.556)"/><path class="cls-5" d="M61.955,169.7a.522.522,0,0,1,.522-.55.447.447,0,0,1,.467.494.785.785,0,0,1-.008.108H62.07v-.138h.763l-.044.05c0-.25-.121-.373-.308-.373a.367.367,0,0,0-.354.409.377.377,0,0,0,.4.412.544.544,0,0,0,.312-.1l.063.117a.681.681,0,0,1-.4.126A.525.525,0,0,1,61.955,169.7Z" transform="translate(-31.34 -122.556)"/><path class="cls-5" d="M63.267,169.176h.143l.015.178h.008a.526.526,0,0,1,.385-.2c.243,0,.354.147.354.425v.654H64v-.63c0-.2-.067-.293-.233-.293-.122,0-.2.063-.323.189v.734h-.174Z" transform="translate(-31.34 -122.556)"/><path class="cls-5" d="M64.763,169.819v-.5h-.29v-.134l.3-.011.023-.338h.145v.338h.5v.145h-.5v.5c0,.188.061.285.259.285a.655.655,0,0,0,.244-.047l.038.132a.859.859,0,0,1-.32.063C64.86,170.255,64.763,170.08,64.763,169.819Z" transform="translate(-31.34 -122.556)"/><path class="cls-5" d="M66.974,169.705a.507.507,0,1,1,.5.55A.51.51,0,0,1,66.974,169.705Zm.832,0c0-.243-.131-.406-.327-.406s-.326.163-.326.406.131.4.326.4S67.806,169.945,67.806,169.705Z" transform="translate(-31.34 -122.556)"/><path class="cls-5" d="M68.323,169.187l.3-.011h.6v.145h-.893Zm.293-.1a.381.381,0,0,1,.413-.427.746.746,0,0,1,.3.061l-.04.134a.542.542,0,0,0-.239-.049c-.183,0-.256.106-.256.275v1.148h-.173Z" transform="translate(-31.34 -122.556)"/><path class="cls-5" d="M70.825,170.075h.343v-1.114h-.343v-.153h.863v.153h-.343v1.114h.343v.154h-.863Z" transform="translate(-31.34 -122.556)"/><path class="cls-5" d="M72.079,169.176h.143l.015.178h.009a.524.524,0,0,1,.385-.2c.242,0,.353.147.353.425v.654H72.81v-.63c0-.2-.068-.293-.234-.293-.122,0-.2.063-.322.189v.734h-.175Z" transform="translate(-31.34 -122.556)"/><path class="cls-5" d="M73.359,169.187l.3-.011h.6v.145h-.893Zm.293-.1a.381.381,0,0,1,.413-.427.746.746,0,0,1,.3.061l-.04.134a.541.541,0,0,0-.238-.049c-.184,0-.257.106-.257.275v1.148h-.173Z" transform="translate(-31.34 -122.556)"/><path class="cls-5" d="M74.528,169.705a.507.507,0,1,1,.5.55A.51.51,0,0,1,74.528,169.705Zm.831,0c0-.243-.13-.406-.326-.406s-.326.163-.326.406.13.4.326.4S75.359,169.945,75.359,169.705Z" transform="translate(-31.34 -122.556)"/><path class="cls-5" d="M75.965,169.176h.146l.016.249h.005a.536.536,0,0,1,.457-.275.424.424,0,0,1,.2.043l-.04.154a.5.5,0,0,0-.189-.035.481.481,0,0,0-.422.3v.615h-.175Z" transform="translate(-31.34 -122.556)"/><path class="cls-5" d="M77.042,169.176h.139l.014.138H77.2a.253.253,0,0,1,.233-.164c.1,0,.165.06.194.182.059-.113.122-.182.24-.182.143,0,.227.115.227.325v.754h-.172v-.741c0-.121-.034-.184-.11-.184s-.109.054-.164.162v.763h-.16v-.741c0-.121-.03-.184-.105-.184s-.118.054-.169.162v.763h-.172Z" transform="translate(-31.34 -122.556)"/><path class="cls-5" d="M78.347,169.956c0-.236.215-.351.743-.394a.247.247,0,0,0-.272-.265.7.7,0,0,0-.358.126l-.069-.121a.873.873,0,0,1,.457-.152.386.386,0,0,1,.417.433v.646H79.12l-.016-.143h0a.682.682,0,0,1-.4.169A.312.312,0,0,1,78.347,169.956Zm.743,0v-.273c-.438.034-.57.123-.57.262,0,.119.105.167.223.167A.549.549,0,0,0,79.09,169.954Z" transform="translate(-31.34 -122.556)"/><path class="cls-5" d="M79.871,169.819v-.5H79.58v-.134l.3-.011.023-.338h.145v.338h.5v.145h-.5v.5c0,.188.061.285.26.285a.663.663,0,0,0,.244-.047l.038.132a.867.867,0,0,1-.32.063C79.968,170.255,79.871,170.08,79.871,169.819Z" transform="translate(-31.34 -122.556)"/><path class="cls-5" d="M81.359,169.321h-.473v-.145h.648v1.053h-.175Zm-.069-.5a.139.139,0,1,1,.139.139A.133.133,0,0,1,81.29,168.816Z" transform="translate(-31.34 -122.556)"/><path class="cls-5" d="M82.124,169.705a.538.538,0,0,1,.57-.555.514.514,0,0,1,.373.154l-.087.114a.417.417,0,0,0-.279-.119.382.382,0,0,0-.4.406.376.376,0,0,0,.393.4.476.476,0,0,0,.316-.132l.078.117a.6.6,0,0,1-.406.165A.523.523,0,0,1,82.124,169.705Z" transform="translate(-31.34 -122.556)"/><path class="cls-5" d="M83.363,170.09l.08-.119a.718.718,0,0,0,.445.143c.173,0,.257-.073.257-.162s-.041-.137-.318-.195-.4-.15-.4-.308.145-.3.425-.3a.757.757,0,0,1,.413.134l-.085.115a.592.592,0,0,0-.343-.11c-.172,0-.235.071-.235.151s.088.13.3.176c.339.075.421.162.421.325s-.162.314-.454.314A.886.886,0,0,1,83.363,170.09Z" transform="translate(-31.34 -122.556)"/><path class="cls-5" d="M53.2,171.414h.179v.71h.007l.579-.71h.2l-.788.968v.453H53.2Zm.392.628.107-.143.518.936h-.2Z" transform="translate(-31.34 -122.556)"/><path class="cls-5" d="M54.921,171.927h-.474v-.145H55.1v1.053h-.175Zm-.069-.5a.139.139,0,0,1,.277,0,.139.139,0,1,1-.277,0Z" transform="translate(-31.34 -122.556)"/><path class="cls-5" d="M55.713,171.782h.143l.015.177h.008a.528.528,0,0,1,.386-.2c.242,0,.353.147.353.425v.654h-.175v-.63c0-.2-.067-.293-.233-.293-.122,0-.2.063-.322.189v.734h-.175Z" transform="translate(-31.34 -122.556)"/><path class="cls-5" d="M56.928,173.028a.289.289,0,0,1,.168-.234v-.009a.189.189,0,0,1-.1-.173.255.255,0,0,1,.122-.2v-.009a.337.337,0,0,1-.127-.273.38.38,0,0,1,.4-.377.408.408,0,0,1,.151.026h.423v.145H57.7a.321.321,0,0,1,.087.213.363.363,0,0,1-.4.361.432.432,0,0,1-.173-.039.148.148,0,0,0-.08.121c0,.083.078.122.213.122h.229c.263,0,.39.069.39.247,0,.2-.221.368-.569.368C57.1,173.32,56.928,173.214,56.928,173.028Zm.869-.048c0-.1-.078-.127-.234-.127h-.2a.555.555,0,0,1-.155-.018c-.1.054-.131.115-.131.175,0,.111.116.18.335.18C57.65,173.19,57.8,173.088,57.8,172.98Zm-.172-.847a.236.236,0,1,0-.236.249A.235.235,0,0,0,57.625,172.133Z" transform="translate(-31.34 -122.556)"/><path class="cls-5" d="M58.184,172.7l.08-.119a.715.715,0,0,0,.444.143c.173,0,.257-.074.257-.162s-.04-.137-.318-.195-.4-.15-.4-.308.145-.3.425-.3a.754.754,0,0,1,.412.134l-.084.115a.592.592,0,0,0-.343-.11c-.173,0-.236.071-.236.151s.089.13.3.176c.339.076.421.162.421.325s-.162.314-.454.314A.883.883,0,0,1,58.184,172.7Z" transform="translate(-31.34 -122.556)"/><path class="cls-5" d="M60.689,172.124c0-.457.26-.736.62-.736a.513.513,0,0,1,.379.173l-.1.115a.364.364,0,0,0-.277-.128c-.264,0-.436.219-.436.572s.172.581.436.581a.39.39,0,0,0,.309-.157l.1.111a.527.527,0,0,1-.427.206C60.951,172.861,60.689,172.588,60.689,172.124Z" transform="translate(-31.34 -122.556)"/><path class="cls-5" d="M61.938,172.311a.507.507,0,1,1,.5.55A.51.51,0,0,1,61.938,172.311Zm.832,0c0-.243-.131-.406-.327-.406s-.326.163-.326.406.131.4.326.4S62.77,172.551,62.77,172.311Z" transform="translate(-31.34 -122.556)"/><path class="cls-5" d="M63.589,172.482v-1.044h-.362v-.146h.537v1.2c0,.151.08.216.2.216a.453.453,0,0,0,.191-.047l.045.134a.61.61,0,0,1-.274.063C63.709,172.861,63.589,172.731,63.589,172.482Z" transform="translate(-31.34 -122.556)"/><path class="cls-5" d="M64.848,172.482v-1.044h-.363v-.146h.537v1.2a.188.188,0,0,0,.2.216.453.453,0,0,0,.191-.047l.044.134a.606.606,0,0,1-.273.063C64.968,172.861,64.848,172.731,64.848,172.482Z" transform="translate(-31.34 -122.556)"/><path class="cls-5" d="M65.731,172.306a.523.523,0,0,1,.523-.55.447.447,0,0,1,.467.494.785.785,0,0,1-.008.108h-.866v-.138h.763l-.045.05c0-.249-.12-.373-.307-.373a.366.366,0,0,0-.354.409.377.377,0,0,0,.4.412.547.547,0,0,0,.312-.1l.063.117a.684.684,0,0,1-.4.126A.526.526,0,0,1,65.731,172.306Z" transform="translate(-31.34 -122.556)"/><path class="cls-5" d="M67,173.028a.29.29,0,0,1,.169-.234v-.009a.19.19,0,0,1-.106-.173.254.254,0,0,1,.123-.2v-.009a.337.337,0,0,1-.127-.273.38.38,0,0,1,.4-.377.41.41,0,0,1,.152.026h.423v.145H67.77a.325.325,0,0,1,.086.213.362.362,0,0,1-.4.361.431.431,0,0,1-.172-.039.145.145,0,0,0-.08.121c0,.083.078.122.212.122h.23c.263,0,.39.069.39.247,0,.2-.222.368-.569.368C67.172,173.32,67,173.214,67,173.028Zm.87-.048c0-.1-.078-.127-.234-.127h-.2a.567.567,0,0,1-.156-.018c-.1.054-.13.115-.13.175,0,.111.116.18.334.18C67.722,173.19,67.869,173.088,67.869,172.98Zm-.173-.847a.236.236,0,1,0-.236.249A.234.234,0,0,0,67.7,172.133Z" transform="translate(-31.34 -122.556)"/><path class="cls-5" d="M68.25,172.306a.522.522,0,0,1,.522-.55.447.447,0,0,1,.467.494.785.785,0,0,1-.008.108h-.866v-.138h.763l-.045.05c0-.249-.12-.373-.307-.373a.366.366,0,0,0-.354.409.377.377,0,0,0,.4.412.544.544,0,0,0,.312-.1l.063.117a.681.681,0,0,1-.4.126A.525.525,0,0,1,68.25,172.306Z" transform="translate(-31.34 -122.556)"/><path class="cls-5" d="M70.907,171.414h.175v1.267h.682v.154h-.857Z" transform="translate(-31.34 -122.556)"/><path class="cls-5" d="M72.01,172.311a.507.507,0,1,1,.5.55A.51.51,0,0,1,72.01,172.311Zm.831,0c0-.243-.13-.406-.326-.406s-.327.163-.327.406.131.4.327.4S72.841,172.551,72.841,172.311Z" transform="translate(-31.34 -122.556)"/><path class="cls-5" d="M73.338,171.782h.143l.015.177h.009a.526.526,0,0,1,.385-.2c.242,0,.354.147.354.425v.654h-.175v-.63c0-.2-.067-.293-.234-.293-.122,0-.2.063-.322.189v.734h-.175Z" transform="translate(-31.34 -122.556)"/><path class="cls-5" d="M74.528,172.311a.5.5,0,0,1,.463-.555.433.433,0,0,1,.307.134h0l-.009-.193v-.405h.175v1.543h-.143l-.015-.139h-.006a.487.487,0,0,1-.335.165C74.705,172.861,74.528,172.662,74.528,172.311Zm.766.242v-.524a.372.372,0,0,0-.267-.121c-.177,0-.32.16-.32.4s.113.4.3.4A.382.382,0,0,0,75.294,172.553Z" transform="translate(-31.34 -122.556)"/><path class="cls-5" d="M75.787,172.311a.507.507,0,1,1,.5.55A.509.509,0,0,1,75.787,172.311Zm.831,0c0-.243-.13-.406-.326-.406s-.327.163-.327.406.131.4.327.4S76.618,172.551,76.618,172.311Z" transform="translate(-31.34 -122.556)"/><path class="cls-5" d="M77.115,171.782h.143l.015.177h.009a.526.526,0,0,1,.385-.2c.242,0,.354.147.354.425v.654h-.175v-.63c0-.2-.068-.293-.234-.293-.122,0-.2.063-.322.189v.734h-.175Z" transform="translate(-31.34 -122.556)"/><path class="cls-5" d="M53.062,174.742c0-.443.247-.716.569-.716s.568.273.568.716-.246.723-.568.723S53.062,175.184,53.062,174.742Zm1.041,0c0-.38-.19-.627-.472-.627s-.472.247-.472.627.19.632.472.632S54.1,175.121,54.1,174.742Zm-.8,0a.372.372,0,0,1,.347-.41.283.283,0,0,1,.219.1l-.072.085a.194.194,0,0,0-.141-.066c-.128,0-.212.12-.212.289,0,.19.079.307.2.307a.247.247,0,0,0,.17-.073l.064.093a.334.334,0,0,1-.239.1C53.458,175.17,53.307,175.01,53.307,174.742Z" transform="translate(-31.34 -122.556)"/><path class="cls-5" d="M56.061,174.174H55.6v-.154h1.09v.154h-.457v1.267h-.176Z" transform="translate(-31.34 -122.556)"/><path class="cls-5" d="M56.9,174.917a.507.507,0,1,1,.506.55A.51.51,0,0,1,56.9,174.917Zm.832,0c0-.243-.13-.405-.326-.405s-.327.162-.327.405.131.4.327.4S57.734,175.158,57.734,174.917Z" transform="translate(-31.34 -122.556)"/><path class="cls-5" d="M58.157,174.388H58.3l.015.139h0a.255.255,0,0,1,.233-.165c.1,0,.165.061.194.182.059-.112.122-.182.24-.182.143,0,.227.115.227.326v.753h-.172V174.7c0-.121-.034-.184-.109-.184s-.11.054-.165.163v.762H58.6V174.7c0-.121-.029-.184-.105-.184s-.118.054-.168.163v.762h-.173Z" transform="translate(-31.34 -122.556)"/><path class="cls-5" d="M60.719,174.02H60.9v.594h.573v-.594h.179v1.421h-.179v-.667H60.9v.667h-.179Z" transform="translate(-31.34 -122.556)"/><path class="cls-5" d="M61.955,174.913a.522.522,0,0,1,.522-.551.448.448,0,0,1,.467.494.8.8,0,0,1-.008.109H62.07v-.139h.763l-.044.05c0-.249-.121-.373-.308-.373a.367.367,0,0,0-.354.41.376.376,0,0,0,.4.411.551.551,0,0,0,.312-.1l.063.117a.688.688,0,0,1-.4.125A.524.524,0,0,1,61.955,174.913Z" transform="translate(-31.34 -122.556)"/><path class="cls-5" d="M63.376,174.388h.145l.017.25h0a.538.538,0,0,1,.458-.276.418.418,0,0,1,.2.044l-.04.154a.5.5,0,0,0-.19-.035.479.479,0,0,0-.421.3v.615h-.175Z" transform="translate(-31.34 -122.556)"/><path class="cls-5" d="M64.635,174.388h.145l.017.25h0a.538.538,0,0,1,.457-.276.413.413,0,0,1,.2.044l-.04.154a.493.493,0,0,0-.189-.035.479.479,0,0,0-.421.3v.615h-.175Z" transform="translate(-31.34 -122.556)"/><path class="cls-5" d="M66.251,174.534h-.473v-.146h.648v1.053h-.175Zm-.069-.5a.139.139,0,0,1,.278,0,.139.139,0,0,1-.278,0Z" transform="translate(-31.34 -122.556)"/><path class="cls-5" d="M67.043,174.388h.144l.014.178h.009a.524.524,0,0,1,.385-.2c.242,0,.354.148.354.425v.654h-.175v-.63c0-.2-.067-.292-.233-.292-.123,0-.2.062-.323.188v.734h-.175Z" transform="translate(-31.34 -122.556)"/><path class="cls-5" d="M68.258,175.634a.292.292,0,0,1,.169-.234v-.008a.193.193,0,0,1-.106-.174.256.256,0,0,1,.122-.2v-.009a.34.34,0,0,1-.126-.273.38.38,0,0,1,.4-.377.413.413,0,0,1,.152.026h.423v.146h-.265a.32.32,0,0,1,.086.212.363.363,0,0,1-.4.362.439.439,0,0,1-.173-.039.145.145,0,0,0-.08.121c0,.082.078.122.213.122h.23c.263,0,.389.069.389.247,0,.2-.221.368-.569.368C68.431,175.927,68.258,175.821,68.258,175.634Zm.87-.048c0-.1-.078-.127-.234-.127h-.2a.531.531,0,0,1-.156-.018c-.1.055-.13.115-.13.176,0,.111.115.18.334.18C68.98,175.8,69.128,175.7,69.128,175.586Zm-.173-.847a.236.236,0,1,0-.236.25A.235.235,0,0,0,68.955,174.739Z" transform="translate(-31.34 -122.556)"/><path class="cls-5" d="M69.778,175.79a.387.387,0,0,0,.265-.379l-.038-.2.118.171a.146.146,0,0,1-.118.05.153.153,0,0,1-.164-.163.159.159,0,0,1,.169-.165c.124,0,.189.107.189.278a.532.532,0,0,1-.37.52Z" transform="translate(-31.34 -122.556)"/><path class="cls-5" d="M72.037,175.335c.455-.414.7-.656.7-.886a.255.255,0,0,0-.29-.269.46.46,0,0,0-.323.165l-.1-.1a.6.6,0,0,1,.445-.21.4.4,0,0,1,.438.407c0,.26-.253.518-.617.858.084-.006.17-.01.25-.01h.44v.153h-.945Z" transform="translate(-31.34 -122.556)"/><path class="cls-5" d="M73.292,174.746c0-.464.183-.713.482-.713s.482.249.482.713-.183.721-.482.721S73.292,175.205,73.292,174.746Zm.8,0c0-.4-.132-.568-.32-.568s-.32.172-.32.568.133.576.32.576S74.094,175.143,74.094,174.746Zm-.45-.016a.131.131,0,1,1,.261,0,.131.131,0,1,1-.261,0Z" transform="translate(-31.34 -122.556)"/><path class="cls-5" d="M74.555,175.335c.455-.414.7-.656.7-.886a.255.255,0,0,0-.29-.269.456.456,0,0,0-.322.165l-.1-.1a.6.6,0,0,1,.445-.21.4.4,0,0,1,.438.407c0,.26-.253.518-.617.858.084-.006.17-.01.251-.01H75.5v.153h-.945Z" transform="translate(-31.34 -122.556)"/><path class="cls-5" d="M75.864,175.292h.388v-1.014h-.3v-.117a.964.964,0,0,0,.345-.1h.131v1.233h.349v.149h-.912Z" transform="translate(-31.34 -122.556)"/></svg>